<svg width="235" height="64" viewBox="0 0 235 64" fill="none" xmlns="http://www.w3.org/2000/svg">
<path d="M29.0197 0C33.9147 0 38.1692 0.817052 41.7822 2.44872C45.3949 4.0221 48.3963 6.26538 50.7854 9.17893C53.1745 12.0343 54.9526 15.3856 56.118 19.2316C57.2832 23.0772 57.8654 27.2143 57.8654 31.6425C57.8654 36.0712 57.2834 40.2092 56.118 44.0552C54.9526 47.9012 53.1745 51.2812 50.7854 54.1948C48.3963 57.0501 45.395 59.2934 41.7822 60.9251C38.1692 62.4985 33.9147 63.2851 29.0197 63.2851C24.1248 63.285 19.8414 62.4984 16.1702 60.9251C12.5575 59.2934 9.55618 57.0501 7.16706 54.1948C4.77793 51.2812 2.97113 47.9011 1.74741 44.0552C0.582002 40.2092 0 36.0712 0 31.6425C4.98912e-05 27.2143 0.582151 23.0772 1.74741 19.2316C2.97111 15.3856 4.77797 12.0343 7.16706 9.17893C9.55617 6.26539 12.5575 4.0221 16.1702 2.44872C19.8414 0.817074 24.1248 2.2157e-05 29.0197 0Z" fill="#48034E"/>
<path fill-rule="evenodd" clip-rule="evenodd" d="M160.156 1.04945C164.06 1.04945 167.499 1.8073 170.471 3.32242C173.443 4.77927 175.774 6.96502 177.464 9.87856C179.212 12.7921 180.085 16.3468 180.085 20.5421C180.085 24.5047 179.27 28.0014 177.638 31.0316C176.065 34.0034 173.763 36.3043 170.732 37.9359C170.312 38.1669 169.877 38.3786 169.432 38.5769L184.369 62.3243H169.248L155.871 40.3846H146.87V62.4114H133.933V1.04945H160.156ZM146.695 29.3712H157.972C159.836 29.3712 161.41 29.0498 162.692 28.4088C163.974 27.7678 164.935 26.7764 165.576 25.4362C166.275 24.096 166.625 22.4058 166.625 20.3664C166.625 18.0358 165.867 16.0831 164.352 14.5099C162.837 12.8786 160.71 12.0629 157.972 12.0628H146.695V29.3712Z" fill="#48034E"/>
<path d="M106.013 39.7887V1.13649H118.774V62.3243H106.187L82.1501 22.862V62.3243H69.3876V1.13649H83.0238L106.013 39.7887Z" fill="#48034E"/>
<path d="M235 12.1499H207.815V25.3492H230.541V36.3626H207.815V62.3243H195.052V1.13649H235V12.1499Z" fill="#48034E"/>
<circle cx="36.2476" cy="39.1863" r="12.8545" fill="white"/>
</svg>
