<svg width="249" height="218" viewBox="0 0 249 218" fill="none" xmlns="http://www.w3.org/2000/svg">
<path d="M29.0197 0C33.9147 0 38.1692 0.817052 41.7822 2.44872C45.3949 4.0221 48.3963 6.26538 50.7854 9.17893C53.1745 12.0343 54.9526 15.3856 56.118 19.2316C57.2832 23.0772 57.8654 27.2143 57.8654 31.6425C57.8654 36.0712 57.2834 40.2092 56.118 44.0552C54.9526 47.9012 53.1745 51.2812 50.7854 54.1948C48.3963 57.0501 45.395 59.2934 41.7822 60.9251C38.1692 62.4985 33.9147 63.2851 29.0197 63.2851C24.1248 63.285 19.8414 62.4984 16.1702 60.9251C12.5575 59.2934 9.55618 57.0501 7.16706 54.1948C4.77793 51.2812 2.97113 47.9011 1.74741 44.0552C0.582002 40.2092 0 36.0712 0 31.6425C4.98912e-05 27.2143 0.582151 23.0772 1.74741 19.2316C2.97111 15.3856 4.77797 12.0343 7.16706 9.17893C9.55617 6.26539 12.5575 4.0221 16.1702 2.44872C19.8414 0.817074 24.1248 2.2157e-05 29.0197 0Z" fill="#48034E"/>
<path fill-rule="evenodd" clip-rule="evenodd" d="M160.156 1.04945C164.06 1.04945 167.499 1.8073 170.471 3.32242C173.443 4.77927 175.774 6.96502 177.464 9.87856C179.212 12.7921 180.085 16.3468 180.085 20.5421C180.085 24.5047 179.27 28.0014 177.638 31.0316C176.065 34.0034 173.763 36.3043 170.732 37.9359C170.312 38.1669 169.877 38.3786 169.432 38.5769L184.369 62.3243H169.248L155.871 40.3846H146.87V62.4114H133.933V1.04945H160.156ZM146.695 29.3712H157.972C159.836 29.3712 161.41 29.0498 162.692 28.4088C163.974 27.7678 164.935 26.7764 165.576 25.4362C166.275 24.096 166.625 22.4058 166.625 20.3664C166.625 18.0358 165.867 16.0831 164.352 14.5099C162.837 12.8786 160.71 12.0629 157.972 12.0628H146.695V29.3712Z" fill="#48034E"/>
<path d="M106.013 39.7887V1.13649H118.774V62.3243H106.187L82.1501 22.862V62.3243H69.3876V1.13649H83.0238L106.013 39.7887Z" fill="#48034E"/>
<path d="M235 12.1499H207.815V25.3492H230.541V36.3626H207.815V62.3243H195.052V1.13649H235V12.1499Z" fill="#48034E"/>
<circle cx="36.2476" cy="39.1863" r="12.8545" fill="white"/>
<path d="M14.096 105.432C12.152 105.432 10.532 105.084 9.236 104.388C7.94 103.692 6.92 102.744 6.176 101.544C5.456 100.32 4.976 98.928 4.736 97.368C4.52 95.808 4.52 94.164 4.736 92.436C4.952 90.684 5.36 89.028 5.96 87.468C6.584 85.884 7.4 84.492 8.408 83.292C9.44 82.068 10.688 81.108 12.152 80.412C13.64 79.716 15.356 79.368 17.3 79.368C19.244 79.368 20.864 79.716 22.16 80.412C23.456 81.108 24.464 82.068 25.184 83.292C25.928 84.492 26.408 85.884 26.624 87.468C26.84 89.028 26.84 90.684 26.624 92.436C26.408 94.164 26 95.808 25.4 97.368C24.8 98.928 23.984 100.32 22.952 101.544C21.944 102.744 20.696 103.692 19.208 104.388C17.744 105.084 16.04 105.432 14.096 105.432ZM14.348 103.416C16.124 103.416 17.708 102.996 19.1 102.156C20.516 101.292 21.68 100.044 22.592 98.412C23.504 96.756 24.104 94.764 24.392 92.436C24.68 90.132 24.56 88.164 24.032 86.532C23.528 84.876 22.676 83.604 21.476 82.716C20.3 81.828 18.824 81.384 17.048 81.384C15.296 81.384 13.712 81.828 12.296 82.716C10.88 83.604 9.704 84.876 8.768 86.532C7.856 88.164 7.256 90.132 6.968 92.436C6.68 94.764 6.788 96.756 7.292 98.412C7.82 100.044 8.684 101.292 9.884 102.156C11.108 102.996 12.596 103.416 14.348 103.416ZM34.6638 90.528C34.9758 89.856 35.4438 89.22 36.0678 88.62C36.7158 88.02 37.4958 87.528 38.4078 87.144C39.3198 86.76 40.3158 86.568 41.3958 86.568C42.8118 86.568 44.0478 86.952 45.1038 87.72C46.1598 88.464 46.9398 89.544 47.4438 90.96C47.9718 92.352 48.1158 94.032 47.8758 96C47.6358 98.016 47.0958 99.732 46.2558 101.148C45.4398 102.54 44.4198 103.608 43.1958 104.352C41.9718 105.072 40.6038 105.432 39.0918 105.432C38.0838 105.432 37.1718 105.24 36.3558 104.856C35.5398 104.472 34.8678 103.98 34.3398 103.38C33.8118 102.756 33.4638 102.12 33.2958 101.472L32.8638 105H30.8478L33.9438 79.8H35.9598L34.6638 90.528ZM40.7478 88.368C39.8118 88.368 38.8518 88.656 37.8678 89.232C36.9078 89.784 36.0678 90.624 35.3478 91.752C34.6278 92.88 34.1598 94.296 33.9438 96C33.7518 97.704 33.8718 99.12 34.3038 100.248C34.7598 101.376 35.3958 102.228 36.2118 102.804C37.0518 103.356 37.9398 103.632 38.8758 103.632C40.2438 103.632 41.3958 103.32 42.3318 102.696C43.2918 102.048 44.0478 101.16 44.5998 100.032C45.1758 98.88 45.5598 97.56 45.7518 96.072C45.9438 94.536 45.8598 93.192 45.4998 92.04C45.1398 90.888 44.5518 89.988 43.7358 89.34C42.9438 88.692 41.9478 88.368 40.7478 88.368ZM58.3653 105.432C57.1413 105.432 56.0013 105.18 54.9453 104.676C53.8893 104.148 53.0613 103.428 52.4613 102.516C51.8853 101.604 51.6693 100.56 51.8133 99.384H53.9733C53.8773 100.296 54.0573 101.076 54.5133 101.724C54.9693 102.348 55.5813 102.828 56.3493 103.164C57.1173 103.476 57.8853 103.632 58.6533 103.632C60.1893 103.632 61.4373 103.344 62.3973 102.768C63.3813 102.192 63.9453 101.328 64.0893 100.176C64.1613 99.48 64.0053 98.94 63.6213 98.556C63.2613 98.148 62.7453 97.836 62.0733 97.62C61.4253 97.404 60.6933 97.224 59.8773 97.08C59.0613 96.936 58.2573 96.768 57.4653 96.576C56.6733 96.36 55.9533 96.072 55.3053 95.712C54.6573 95.352 54.1533 94.86 53.7933 94.236C53.4573 93.612 53.3493 92.784 53.4693 91.752C53.5893 90.864 53.9373 90.036 54.5133 89.268C55.0893 88.476 55.8933 87.828 56.9253 87.324C57.9813 86.82 59.2413 86.568 60.7053 86.568C62.0493 86.568 63.1293 86.736 63.9453 87.072C64.7613 87.384 65.3733 87.804 65.7813 88.332C66.2133 88.86 66.4773 89.436 66.5733 90.06C66.6933 90.66 66.7173 91.236 66.6453 91.788H64.4853C64.6053 90.876 64.3053 90.084 63.5853 89.412C62.8653 88.716 61.8213 88.368 60.4533 88.368C59.2773 88.368 58.1973 88.644 57.2133 89.196C56.2533 89.724 55.7133 90.54 55.5933 91.644C55.4973 92.388 55.6293 92.976 55.9893 93.408C56.3733 93.816 56.8893 94.14 57.5373 94.38C58.2093 94.596 58.9413 94.788 59.7333 94.956C60.5493 95.1 61.3533 95.268 62.1453 95.46C62.9613 95.652 63.6933 95.928 64.3413 96.288C64.9893 96.624 65.4813 97.104 65.8173 97.728C66.1773 98.352 66.2973 99.168 66.1773 100.176C66.0573 101.136 65.7093 102.024 65.1333 102.84C64.5573 103.632 63.7173 104.268 62.6133 104.748C61.5093 105.204 60.0933 105.432 58.3653 105.432ZM78.0171 105.468C76.2651 105.468 74.8011 105.096 73.6251 104.352C72.4491 103.584 71.6091 102.492 71.1051 101.076C70.6011 99.66 70.4691 97.992 70.7091 96.072C70.9011 94.584 71.2611 93.264 71.7891 92.112C72.3411 90.936 73.0371 89.94 73.8771 89.124C74.7171 88.284 75.6771 87.648 76.7571 87.216C77.8371 86.784 78.9891 86.568 80.2131 86.568C81.7491 86.568 83.0811 86.916 84.2091 87.612C85.3611 88.308 86.2131 89.316 86.7651 90.636C87.3411 91.932 87.5091 93.516 87.2691 95.388L87.1611 96.396H72.3651L72.5811 94.596H85.2171C85.2891 93.876 85.2411 93.156 85.0731 92.436C84.9291 91.692 84.6531 91.02 84.2451 90.42C83.8371 89.796 83.2851 89.304 82.5891 88.944C81.9171 88.56 81.1011 88.368 80.1411 88.368C78.5811 88.368 77.2851 88.716 76.2531 89.412C75.2451 90.084 74.4531 91.008 73.8771 92.184C73.3251 93.36 72.9531 94.692 72.7611 96.18C72.5931 97.692 72.6771 99.012 73.0131 100.14C73.3731 101.268 73.9971 102.144 74.8851 102.768C75.7971 103.368 76.9611 103.668 78.3771 103.668C79.5291 103.668 80.5251 103.452 81.3651 103.02C82.2291 102.588 82.9371 102.048 83.4891 101.4C84.0651 100.752 84.4971 100.104 84.7851 99.456L86.6571 99.816C86.2491 100.8 85.6611 101.724 84.8931 102.588C84.1251 103.452 83.1771 104.148 82.0491 104.676C80.9211 105.204 79.5771 105.468 78.0171 105.468ZM91.422 105L93.654 87H95.67L95.202 90.744C95.322 90.432 95.526 90.048 95.814 89.592C96.126 89.112 96.546 88.644 97.074 88.188C97.602 87.732 98.25 87.348 99.018 87.036C99.81 86.724 100.746 86.568 101.826 86.568C102.042 86.568 102.258 86.58 102.474 86.604C102.69 86.604 102.906 86.628 103.122 86.676L102.834 88.836C102.57 88.74 102.282 88.68 101.97 88.656C101.658 88.608 101.334 88.584 100.998 88.584C99.822 88.584 98.778 88.908 97.866 89.556C96.954 90.18 96.222 91.008 95.67 92.04C95.118 93.048 94.77 94.128 94.626 95.28L93.438 105H91.422ZM104.238 87H106.83L111.33 105H109.17L104.238 87ZM120.402 87L111.33 105H109.17L118.062 87H120.402ZM128.023 105.432C126.631 105.432 125.395 105.06 124.315 104.316C123.259 103.548 122.467 102.468 121.939 101.076C121.435 99.66 121.303 97.968 121.543 96C121.807 93.96 122.359 92.244 123.199 90.852C124.063 89.46 125.119 88.404 126.367 87.684C127.615 86.94 128.935 86.568 130.327 86.568C131.359 86.568 132.283 86.748 133.099 87.108C133.915 87.468 134.587 87.936 135.115 88.512C135.643 89.088 135.979 89.712 136.123 90.384L136.555 87H138.571L136.339 105H134.323L134.755 101.688C134.371 102.504 133.795 103.2 133.027 103.776C132.283 104.328 131.455 104.736 130.543 105C129.655 105.288 128.815 105.432 128.023 105.432ZM128.671 103.632C129.823 103.632 130.867 103.344 131.803 102.768C132.763 102.168 133.555 101.304 134.179 100.176C134.827 99.048 135.259 97.656 135.475 96C135.667 94.296 135.535 92.88 135.079 91.752C134.647 90.624 134.023 89.784 133.207 89.232C132.391 88.656 131.503 88.368 130.543 88.368C129.175 88.368 128.011 88.692 127.051 89.34C126.115 89.964 125.359 90.84 124.783 91.968C124.231 93.096 123.859 94.416 123.667 95.928C123.499 97.464 123.583 98.808 123.919 99.96C124.279 101.112 124.867 102.012 125.683 102.66C126.499 103.308 127.495 103.632 128.671 103.632ZM147.944 105.396C146.408 105.396 145.34 104.952 144.74 104.064C144.14 103.176 143.948 101.892 144.164 100.212L145.532 88.836H142.292L142.544 87H143.372C144.116 87 144.668 86.952 145.028 86.856C145.412 86.76 145.676 86.532 145.82 86.172C145.988 85.812 146.12 85.248 146.216 84.48L146.468 82.428H148.34L147.8 87.036H152.444L152.192 88.836H147.548L146.18 100.176C146.012 101.496 146.144 102.372 146.576 102.804C147.008 103.236 147.656 103.452 148.52 103.452C148.76 103.452 149.024 103.44 149.312 103.416C149.6 103.392 149.888 103.356 150.176 103.308L149.96 105.108C149.648 105.204 149.3 105.276 148.916 105.324C148.556 105.372 148.232 105.396 147.944 105.396ZM161.857 105.432C160.369 105.432 159.049 105.084 157.897 104.388C156.745 103.668 155.881 102.612 155.305 101.22C154.729 99.804 154.561 98.064 154.801 96C154.993 94.44 155.377 93.084 155.953 91.932C156.529 90.756 157.237 89.772 158.077 88.98C158.941 88.164 159.889 87.564 160.921 87.18C161.977 86.772 163.057 86.568 164.161 86.568C165.649 86.568 166.969 86.928 168.121 87.648C169.273 88.344 170.137 89.4 170.713 90.816C171.313 92.208 171.481 93.936 171.217 96C171.025 97.536 170.641 98.892 170.065 100.068C169.489 101.244 168.769 102.24 167.905 103.056C167.065 103.848 166.129 104.448 165.097 104.856C164.065 105.24 162.985 105.432 161.857 105.432ZM162.073 103.632C164.065 103.632 165.661 102.948 166.861 101.58C168.085 100.188 168.841 98.328 169.129 96C169.417 93.672 169.117 91.824 168.229 90.456C167.365 89.064 165.937 88.368 163.945 88.368C161.953 88.368 160.345 89.064 159.121 90.456C157.921 91.824 157.177 93.672 156.889 96C156.601 98.328 156.889 100.188 157.753 101.58C158.641 102.948 160.081 103.632 162.073 103.632ZM179.339 83.94C178.883 83.94 178.499 83.772 178.187 83.436C177.899 83.1 177.779 82.704 177.827 82.248C177.875 81.768 178.091 81.36 178.475 81.024C178.883 80.688 179.315 80.52 179.771 80.52C180.227 80.52 180.587 80.688 180.851 81.024C181.139 81.36 181.259 81.768 181.211 82.248C181.163 82.704 180.947 83.1 180.563 83.436C180.203 83.772 179.795 83.94 179.339 83.94ZM175.703 105L177.935 87H179.951L177.719 105H175.703ZM185.113 105L187.345 87H189.361L188.893 90.744C189.013 90.432 189.217 90.048 189.505 89.592C189.817 89.112 190.237 88.644 190.765 88.188C191.293 87.732 191.941 87.348 192.709 87.036C193.501 86.724 194.437 86.568 195.517 86.568C195.733 86.568 195.949 86.58 196.165 86.604C196.381 86.604 196.597 86.628 196.813 86.676L196.525 88.836C196.261 88.74 195.973 88.68 195.661 88.656C195.349 88.608 195.025 88.584 194.689 88.584C193.513 88.584 192.469 88.908 191.557 89.556C190.645 90.18 189.913 91.008 189.361 92.04C188.809 93.048 188.461 94.128 188.317 95.28L187.129 105H185.113ZM205.669 105.468C203.917 105.468 202.453 105.096 201.277 104.352C200.101 103.584 199.261 102.492 198.757 101.076C198.253 99.66 198.121 97.992 198.361 96.072C198.553 94.584 198.913 93.264 199.441 92.112C199.993 90.936 200.689 89.94 201.529 89.124C202.369 88.284 203.329 87.648 204.409 87.216C205.489 86.784 206.641 86.568 207.865 86.568C209.401 86.568 210.733 86.916 211.861 87.612C213.013 88.308 213.865 89.316 214.417 90.636C214.993 91.932 215.161 93.516 214.921 95.388L214.813 96.396H200.017L200.233 94.596H212.869C212.941 93.876 212.893 93.156 212.725 92.436C212.581 91.692 212.305 91.02 211.897 90.42C211.489 89.796 210.937 89.304 210.241 88.944C209.569 88.56 208.753 88.368 207.793 88.368C206.233 88.368 204.937 88.716 203.905 89.412C202.897 90.084 202.105 91.008 201.529 92.184C200.977 93.36 200.605 94.692 200.413 96.18C200.245 97.692 200.329 99.012 200.665 100.14C201.025 101.268 201.649 102.144 202.537 102.768C203.449 103.368 204.613 103.668 206.029 103.668C207.181 103.668 208.177 103.452 209.017 103.02C209.881 102.588 210.589 102.048 211.141 101.4C211.717 100.752 212.149 100.104 212.437 99.456L214.309 99.816C213.901 100.8 213.313 101.724 212.545 102.588C211.777 103.452 210.829 104.148 209.701 104.676C208.573 105.204 207.229 105.468 205.669 105.468ZM17.192 137.832C16.832 138.648 16.268 139.332 15.5 139.884C14.756 140.412 13.928 140.796 13.016 141.036C12.128 141.3 11.288 141.432 10.496 141.432C9.032 141.432 7.76 141.072 6.68 140.352C5.624 139.608 4.856 138.54 4.376 137.148C3.896 135.732 3.776 134.016 4.016 132C4.256 130.032 4.808 128.352 5.672 126.96C6.536 125.544 7.592 124.464 8.84 123.72C10.088 122.952 11.408 122.568 12.8 122.568C13.592 122.568 14.396 122.724 15.212 123.036C16.052 123.324 16.784 123.756 17.408 124.332C18.032 124.908 18.428 125.616 18.596 126.456L19.892 115.8H21.908L19.28 137.292C19.184 138.18 19.352 138.756 19.784 139.02C20.216 139.284 20.84 139.248 21.656 138.912L21.476 140.604C21.212 140.748 20.948 140.868 20.684 140.964C20.444 141.036 20.096 141.06 19.64 141.036C19.184 141.012 18.74 140.916 18.308 140.748C17.9 140.58 17.588 140.268 17.372 139.812C17.156 139.356 17.096 138.696 17.192 137.832ZM11.144 139.632C12.296 139.632 13.34 139.344 14.276 138.768C15.236 138.168 16.028 137.304 16.652 136.176C17.3 135.048 17.732 133.656 17.948 132C18.236 129.504 17.912 127.608 16.976 126.312C16.064 125.016 14.744 124.368 13.016 124.368C11.84 124.368 10.76 124.692 9.776 125.34C8.816 125.988 8.012 126.888 7.364 128.04C6.74 129.192 6.332 130.536 6.14 132.072C5.948 133.56 5.996 134.88 6.284 136.032C6.572 137.16 7.112 138.048 7.904 138.696C8.72 139.32 9.8 139.632 11.144 139.632ZM42.8727 123L40.6407 141H38.6247L39.0927 137.256C38.9727 137.568 38.7567 137.964 38.4447 138.444C38.1567 138.9 37.7487 139.356 37.2207 139.812C36.6927 140.268 36.0327 140.652 35.2407 140.964C34.4727 141.276 33.5487 141.432 32.4687 141.432C31.3167 141.432 30.2727 141.168 29.3367 140.64C28.4007 140.088 27.6927 139.308 27.2127 138.3C26.7327 137.268 26.5767 136.032 26.7447 134.592L28.1847 123H30.2007L28.8327 134.16C28.5927 135.984 28.9047 137.352 29.7687 138.264C30.6327 139.176 31.7967 139.632 33.2607 139.632C34.4607 139.632 35.5047 139.296 36.3927 138.624C37.3047 137.952 38.0367 137.088 38.5887 136.032C39.1647 134.976 39.5247 133.872 39.6687 132.72L40.8567 123H42.8727ZM58.1291 141L60.3611 123H62.3771L61.9091 126.744C62.0291 126.432 62.2331 126.048 62.5211 125.592C62.8331 125.112 63.2531 124.644 63.7811 124.188C64.3091 123.732 64.9571 123.348 65.7251 123.036C66.5171 122.724 67.4531 122.568 68.5331 122.568C69.7091 122.568 70.7531 122.844 71.6651 123.396C72.6011 123.924 73.3091 124.704 73.7891 125.736C74.2931 126.744 74.4491 127.968 74.2571 129.408L72.8171 141H70.8011L72.1691 129.84C72.4091 128.016 72.0971 126.648 71.2331 125.736C70.3691 124.824 69.2051 124.368 67.7411 124.368C66.5651 124.368 65.5211 124.704 64.6091 125.376C63.6971 126.048 62.9531 126.912 62.3771 127.968C61.8251 129.024 61.4771 130.128 61.3331 131.28L60.1451 141H58.1291ZM95.9938 123L93.7618 141H91.7458L92.2138 137.256C92.0938 137.568 91.8778 137.964 91.5658 138.444C91.2778 138.9 90.8698 139.356 90.3418 139.812C89.8138 140.268 89.1538 140.652 88.3618 140.964C87.5938 141.276 86.6698 141.432 85.5898 141.432C84.4378 141.432 83.3938 141.168 82.4578 140.64C81.5218 140.088 80.8138 139.308 80.3338 138.3C79.8538 137.268 79.6978 136.032 79.8658 134.592L81.3058 123H83.3218L81.9538 134.16C81.7138 135.984 82.0258 137.352 82.8898 138.264C83.7538 139.176 84.9178 139.632 86.3818 139.632C87.5818 139.632 88.6258 139.296 89.5138 138.624C90.4258 137.952 91.1578 137.088 91.7098 136.032C92.2858 134.976 92.6458 133.872 92.7898 132.72L93.9778 123H95.9938ZM100.457 141L102.689 123H104.705L104.237 126.744C104.357 126.432 104.561 126.048 104.849 125.592C105.161 125.112 105.581 124.644 106.109 124.188C106.637 123.732 107.285 123.348 108.053 123.036C108.845 122.724 109.781 122.568 110.861 122.568C112.037 122.568 113.081 122.844 113.993 123.396C114.929 123.924 115.637 124.704 116.117 125.736C116.621 126.744 116.777 127.968 116.585 129.408L115.145 141H113.129L114.497 129.84C114.737 128.016 114.425 126.648 113.561 125.736C112.697 124.824 111.533 124.368 110.069 124.368C108.893 124.368 107.849 124.704 106.937 125.376C106.025 126.048 105.281 126.912 104.705 127.968C104.153 129.024 103.805 130.128 103.661 131.28L102.473 141H100.457ZM125.801 141L127.169 129.84C127.409 128.016 127.097 126.648 126.233 125.736C125.369 124.824 124.205 124.368 122.741 124.368C121.565 124.368 120.521 124.692 119.609 125.34C118.697 125.964 117.965 126.804 117.413 127.86C116.861 128.892 116.501 130.032 116.333 131.28L116.441 127.356C116.561 127.044 116.789 126.624 117.125 126.096C117.485 125.568 117.953 125.04 118.529 124.512C119.129 123.96 119.837 123.504 120.653 123.144C121.493 122.76 122.453 122.568 123.533 122.568C124.709 122.568 125.753 122.844 126.665 123.396C127.601 123.924 128.309 124.704 128.789 125.736C129.293 126.744 129.449 127.968 129.257 129.408L127.817 141H125.801ZM141.158 141.468C139.406 141.468 137.942 141.096 136.766 140.352C135.59 139.584 134.75 138.492 134.246 137.076C133.742 135.66 133.61 133.992 133.85 132.072C134.042 130.584 134.402 129.264 134.93 128.112C135.482 126.936 136.178 125.94 137.018 125.124C137.858 124.284 138.818 123.648 139.898 123.216C140.978 122.784 142.13 122.568 143.354 122.568C144.89 122.568 146.222 122.916 147.35 123.612C148.502 124.308 149.354 125.316 149.906 126.636C150.482 127.932 150.65 129.516 150.41 131.388L150.302 132.396H135.506L135.722 130.596H148.358C148.43 129.876 148.382 129.156 148.214 128.436C148.07 127.692 147.794 127.02 147.386 126.42C146.978 125.796 146.426 125.304 145.73 124.944C145.058 124.56 144.242 124.368 143.282 124.368C141.722 124.368 140.426 124.716 139.394 125.412C138.386 126.084 137.594 127.008 137.018 128.184C136.466 129.36 136.094 130.692 135.902 132.18C135.734 133.692 135.818 135.012 136.154 136.14C136.514 137.268 137.138 138.144 138.026 138.768C138.938 139.368 140.102 139.668 141.518 139.668C142.67 139.668 143.666 139.452 144.506 139.02C145.37 138.588 146.078 138.048 146.63 137.4C147.206 136.752 147.638 136.104 147.926 135.456L149.798 135.816C149.39 136.8 148.802 137.724 148.034 138.588C147.266 139.452 146.318 140.148 145.19 140.676C144.062 141.204 142.718 141.468 141.158 141.468ZM144.578 119.904H142.778L145.154 115.656H148.502L144.578 119.904ZM154.563 141L156.795 123H158.811L158.343 126.744C158.463 126.432 158.667 126.048 158.955 125.592C159.267 125.112 159.687 124.644 160.215 124.188C160.743 123.732 161.391 123.348 162.159 123.036C162.951 122.724 163.887 122.568 164.967 122.568C165.183 122.568 165.399 122.58 165.615 122.604C165.831 122.604 166.047 122.628 166.263 122.676L165.975 124.836C165.711 124.74 165.423 124.68 165.111 124.656C164.799 124.608 164.475 124.584 164.139 124.584C162.963 124.584 161.919 124.908 161.007 125.556C160.095 126.18 159.363 127.008 158.811 128.04C158.259 129.048 157.911 130.128 157.767 131.28L156.579 141H154.563ZM172.167 119.94C171.711 119.94 171.327 119.772 171.015 119.436C170.727 119.1 170.607 118.704 170.655 118.248C170.703 117.768 170.919 117.36 171.303 117.024C171.711 116.688 172.143 116.52 172.599 116.52C173.055 116.52 173.415 116.688 173.679 117.024C173.967 117.36 174.087 117.768 174.039 118.248C173.991 118.704 173.775 119.1 173.391 119.436C173.031 119.772 172.623 119.94 172.167 119.94ZM168.531 141L170.763 123H172.779L170.547 141H168.531ZM191.18 149.28C190.724 149.256 190.28 149.16 189.848 148.992C189.44 148.824 189.128 148.5 188.912 148.02C188.696 147.564 188.636 146.916 188.732 146.076L189.74 137.472C189.428 138.12 188.948 138.756 188.3 139.38C187.676 139.98 186.908 140.472 185.996 140.856C185.108 141.24 184.112 141.432 183.008 141.432C181.616 141.432 180.38 141.06 179.3 140.316C178.244 139.548 177.452 138.468 176.924 137.076C176.42 135.66 176.288 133.968 176.528 132C176.792 129.96 177.308 128.244 178.076 126.852C178.868 125.46 179.876 124.404 181.1 123.684C182.324 122.94 183.728 122.568 185.312 122.568C186.344 122.568 187.256 122.76 188.048 123.144C188.864 123.528 189.536 124.02 190.064 124.62C190.592 125.22 190.94 125.856 191.108 126.528L191.54 123H193.556L190.82 145.536C190.724 146.424 190.904 147 191.36 147.264C191.816 147.528 192.428 147.492 193.196 147.156L193.016 148.848C192.752 148.992 192.488 149.1 192.224 149.172C191.984 149.268 191.636 149.304 191.18 149.28ZM183.656 139.632C184.616 139.632 185.576 139.356 186.536 138.804C187.496 138.228 188.336 137.376 189.056 136.248C189.776 135.12 190.244 133.704 190.46 132C190.652 130.296 190.52 128.88 190.064 127.752C189.632 126.624 189.008 125.784 188.192 125.232C187.376 124.656 186.488 124.368 185.528 124.368C184.16 124.368 182.996 124.692 182.036 125.34C181.1 125.964 180.344 126.84 179.768 127.968C179.216 129.096 178.844 130.416 178.652 131.928C178.484 133.464 178.568 134.808 178.904 135.96C179.264 137.112 179.852 138.012 180.668 138.66C181.484 139.308 182.48 139.632 183.656 139.632ZM214.646 123L212.414 141H210.398L210.866 137.256C210.746 137.568 210.53 137.964 210.218 138.444C209.93 138.9 209.522 139.356 208.994 139.812C208.466 140.268 207.806 140.652 207.014 140.964C206.246 141.276 205.322 141.432 204.242 141.432C203.09 141.432 202.046 141.168 201.11 140.64C200.174 140.088 199.466 139.308 198.986 138.3C198.506 137.268 198.35 136.032 198.518 134.592L199.958 123H201.974L200.606 134.16C200.366 135.984 200.678 137.352 201.542 138.264C202.406 139.176 203.57 139.632 205.034 139.632C206.234 139.632 207.278 139.296 208.166 138.624C209.078 137.952 209.81 137.088 210.362 136.032C210.938 134.976 211.298 133.872 211.442 132.72L212.63 123H214.646ZM226.166 141.468C224.414 141.468 222.95 141.096 221.774 140.352C220.598 139.584 219.758 138.492 219.254 137.076C218.75 135.66 218.618 133.992 218.858 132.072C219.05 130.584 219.41 129.264 219.938 128.112C220.49 126.936 221.186 125.94 222.026 125.124C222.866 124.284 223.826 123.648 224.906 123.216C225.986 122.784 227.138 122.568 228.362 122.568C229.898 122.568 231.23 122.916 232.358 123.612C233.51 124.308 234.362 125.316 234.914 126.636C235.49 127.932 235.658 129.516 235.418 131.388L235.31 132.396H220.514L220.73 130.596H233.366C233.438 129.876 233.39 129.156 233.222 128.436C233.078 127.692 232.802 127.02 232.394 126.42C231.986 125.796 231.434 125.304 230.738 124.944C230.066 124.56 229.25 124.368 228.29 124.368C226.73 124.368 225.434 124.716 224.402 125.412C223.394 126.084 222.602 127.008 222.026 128.184C221.474 129.36 221.102 130.692 220.91 132.18C220.742 133.692 220.826 135.012 221.162 136.14C221.522 137.268 222.146 138.144 223.034 138.768C223.946 139.368 225.11 139.668 226.526 139.668C227.678 139.668 228.674 139.452 229.514 139.02C230.378 138.588 231.086 138.048 231.638 137.4C232.214 136.752 232.646 136.104 232.934 135.456L234.806 135.816C234.398 136.8 233.81 137.724 233.042 138.588C232.274 139.452 231.326 140.148 230.198 140.676C229.07 141.204 227.726 141.468 226.166 141.468ZM4.34 177L6.572 159H8.588L8.12 162.744C8.24 162.432 8.444 162.048 8.732 161.592C9.044 161.112 9.464 160.644 9.992 160.188C10.52 159.732 11.168 159.348 11.936 159.036C12.728 158.724 13.664 158.568 14.744 158.568C14.96 158.568 15.176 158.58 15.392 158.604C15.608 158.604 15.824 158.628 16.04 158.676L15.752 160.836C15.488 160.74 15.2 160.68 14.888 160.656C14.576 160.608 14.252 160.584 13.916 160.584C12.74 160.584 11.696 160.908 10.784 161.556C9.872 162.18 9.14 163.008 8.588 164.04C8.036 165.048 7.688 166.128 7.544 167.28L6.356 177H4.34ZM24.896 177.468C23.144 177.468 21.68 177.096 20.504 176.352C19.328 175.584 18.488 174.492 17.984 173.076C17.48 171.66 17.348 169.992 17.588 168.072C17.78 166.584 18.14 165.264 18.668 164.112C19.22 162.936 19.916 161.94 20.756 161.124C21.596 160.284 22.556 159.648 23.636 159.216C24.716 158.784 25.868 158.568 27.092 158.568C28.628 158.568 29.96 158.916 31.088 159.612C32.24 160.308 33.092 161.316 33.644 162.636C34.22 163.932 34.388 165.516 34.148 167.388L34.04 168.396H19.244L19.46 166.596H32.096C32.168 165.876 32.12 165.156 31.952 164.436C31.808 163.692 31.532 163.02 31.124 162.42C30.716 161.796 30.164 161.304 29.468 160.944C28.796 160.56 27.98 160.368 27.02 160.368C25.46 160.368 24.164 160.716 23.132 161.412C22.124 162.084 21.332 163.008 20.756 164.184C20.204 165.36 19.832 166.692 19.64 168.18C19.472 169.692 19.556 171.012 19.892 172.14C20.252 173.268 20.876 174.144 21.764 174.768C22.676 175.368 23.84 175.668 25.256 175.668C26.408 175.668 27.404 175.452 28.244 175.02C29.108 174.588 29.816 174.048 30.368 173.4C30.944 172.752 31.376 172.104 31.664 171.456L33.536 171.816C33.128 172.8 32.54 173.724 31.772 174.588C31.004 175.452 30.056 176.148 28.928 176.676C27.8 177.204 26.456 177.468 24.896 177.468ZM44.2325 177.432C43.0085 177.432 41.8685 177.18 40.8125 176.676C39.7565 176.148 38.9285 175.428 38.3285 174.516C37.7525 173.604 37.5365 172.56 37.6805 171.384H39.8405C39.7445 172.296 39.9245 173.076 40.3805 173.724C40.8365 174.348 41.4485 174.828 42.2165 175.164C42.9845 175.476 43.7525 175.632 44.5205 175.632C46.0565 175.632 47.3045 175.344 48.2645 174.768C49.2485 174.192 49.8125 173.328 49.9565 172.176C50.0285 171.48 49.8725 170.94 49.4885 170.556C49.1285 170.148 48.6125 169.836 47.9405 169.62C47.2925 169.404 46.5605 169.224 45.7445 169.08C44.9285 168.936 44.1245 168.768 43.3325 168.576C42.5405 168.36 41.8205 168.072 41.1725 167.712C40.5245 167.352 40.0205 166.86 39.6605 166.236C39.3245 165.612 39.2165 164.784 39.3365 163.752C39.4565 162.864 39.8045 162.036 40.3805 161.268C40.9565 160.476 41.7605 159.828 42.7925 159.324C43.8485 158.82 45.1085 158.568 46.5725 158.568C47.9165 158.568 48.9965 158.736 49.8125 159.072C50.6285 159.384 51.2405 159.804 51.6485 160.332C52.0805 160.86 52.3445 161.436 52.4405 162.06C52.5605 162.66 52.5845 163.236 52.5125 163.788H50.3525C50.4725 162.876 50.1725 162.084 49.4525 161.412C48.7325 160.716 47.6885 160.368 46.3205 160.368C45.1445 160.368 44.0645 160.644 43.0805 161.196C42.1205 161.724 41.5805 162.54 41.4605 163.644C41.3645 164.388 41.4965 164.976 41.8565 165.408C42.2405 165.816 42.7565 166.14 43.4045 166.38C44.0765 166.596 44.8085 166.788 45.6005 166.956C46.4165 167.1 47.2205 167.268 48.0125 167.46C48.8285 167.652 49.5605 167.928 50.2085 168.288C50.8565 168.624 51.3485 169.104 51.6845 169.728C52.0445 170.352 52.1645 171.168 52.0445 172.176C51.9245 173.136 51.5765 174.024 51.0005 174.84C50.4245 175.632 49.5845 176.268 48.4805 176.748C47.3765 177.204 45.9605 177.432 44.2325 177.432ZM59.2763 173.472L57.8363 185.28H55.8203L59.0603 159H61.0763L60.6443 162.528C60.9563 161.856 61.4483 161.22 62.1203 160.62C62.7923 160.02 63.5843 159.528 64.4963 159.144C65.4083 158.76 66.3683 158.568 67.3763 158.568C68.9603 158.568 70.2683 158.94 71.3003 159.684C72.3563 160.404 73.1123 161.46 73.5683 162.852C74.0243 164.244 74.1203 165.96 73.8563 168C73.6163 169.968 73.0643 171.66 72.2003 173.076C71.3363 174.468 70.2803 175.548 69.0323 176.316C67.8083 177.06 66.4883 177.432 65.0723 177.432C63.9923 177.432 63.0443 177.24 62.2283 176.856C61.4123 176.472 60.7523 175.98 60.2483 175.38C59.7683 174.756 59.4443 174.12 59.2763 173.472ZM64.8563 175.632C66.0563 175.632 67.1363 175.308 68.0963 174.66C69.0563 174.012 69.8603 173.112 70.5083 171.96C71.1563 170.808 71.5643 169.464 71.7323 167.928C71.9243 166.416 71.8763 165.096 71.5883 163.968C71.3003 162.84 70.7603 161.964 69.9683 161.34C69.1763 160.692 68.0963 160.368 66.7283 160.368C65.7923 160.368 64.8323 160.656 63.8483 161.232C62.8883 161.784 62.0483 162.624 61.3283 163.752C60.6083 164.88 60.1403 166.296 59.9243 168C59.7323 169.704 59.8523 171.12 60.2843 172.248C60.7403 173.376 61.3763 174.228 62.1923 174.804C63.0323 175.356 63.9203 175.632 64.8563 175.632ZM84.9353 177.432C83.4473 177.432 82.1273 177.084 80.9753 176.388C79.8233 175.668 78.9593 174.612 78.3833 173.22C77.8073 171.804 77.6393 170.064 77.8793 168C78.0713 166.44 78.4553 165.084 79.0313 163.932C79.6073 162.756 80.3153 161.772 81.1553 160.98C82.0193 160.164 82.9673 159.564 83.9993 159.18C85.0553 158.772 86.1353 158.568 87.2393 158.568C88.7273 158.568 90.0473 158.928 91.1993 159.648C92.3513 160.344 93.2153 161.4 93.7913 162.816C94.3913 164.208 94.5593 165.936 94.2953 168C94.1033 169.536 93.7193 170.892 93.1433 172.068C92.5673 173.244 91.8473 174.24 90.9833 175.056C90.1433 175.848 89.2073 176.448 88.1753 176.856C87.1433 177.24 86.0633 177.432 84.9353 177.432ZM85.1513 175.632C87.1433 175.632 88.7393 174.948 89.9393 173.58C91.1633 172.188 91.9193 170.328 92.2073 168C92.4953 165.672 92.1953 163.824 91.3073 162.456C90.4433 161.064 89.0153 160.368 87.0233 160.368C85.0313 160.368 83.4233 161.064 82.1993 162.456C80.9993 163.824 80.2553 165.672 79.9673 168C79.6793 170.328 79.9673 172.188 80.8313 173.58C81.7193 174.948 83.1593 175.632 85.1513 175.632ZM98.6642 177L100.896 159H102.912L102.444 162.744C102.564 162.432 102.768 162.048 103.056 161.592C103.368 161.112 103.788 160.644 104.316 160.188C104.844 159.732 105.492 159.348 106.26 159.036C107.052 158.724 107.988 158.568 109.068 158.568C110.244 158.568 111.288 158.844 112.2 159.396C113.136 159.924 113.844 160.704 114.324 161.736C114.828 162.744 114.984 163.968 114.792 165.408L113.352 177H111.336L112.704 165.84C112.944 164.016 112.632 162.648 111.768 161.736C110.904 160.824 109.74 160.368 108.276 160.368C107.1 160.368 106.056 160.704 105.144 161.376C104.232 162.048 103.488 162.912 102.912 163.968C102.36 165.024 102.012 166.128 101.868 167.28L100.68 177H98.6642ZM125.549 177.432C124.325 177.432 123.185 177.18 122.129 176.676C121.073 176.148 120.245 175.428 119.645 174.516C119.069 173.604 118.853 172.56 118.997 171.384H121.157C121.061 172.296 121.241 173.076 121.697 173.724C122.153 174.348 122.765 174.828 123.533 175.164C124.301 175.476 125.069 175.632 125.837 175.632C127.373 175.632 128.621 175.344 129.581 174.768C130.565 174.192 131.129 173.328 131.273 172.176C131.345 171.48 131.189 170.94 130.805 170.556C130.445 170.148 129.929 169.836 129.257 169.62C128.609 169.404 127.877 169.224 127.061 169.08C126.245 168.936 125.441 168.768 124.649 168.576C123.857 168.36 123.137 168.072 122.489 167.712C121.841 167.352 121.337 166.86 120.977 166.236C120.641 165.612 120.533 164.784 120.653 163.752C120.773 162.864 121.121 162.036 121.697 161.268C122.273 160.476 123.077 159.828 124.109 159.324C125.165 158.82 126.425 158.568 127.889 158.568C129.233 158.568 130.313 158.736 131.129 159.072C131.945 159.384 132.557 159.804 132.965 160.332C133.397 160.86 133.661 161.436 133.757 162.06C133.877 162.66 133.901 163.236 133.829 163.788H131.669C131.789 162.876 131.489 162.084 130.769 161.412C130.049 160.716 129.005 160.368 127.637 160.368C126.461 160.368 125.381 160.644 124.397 161.196C123.437 161.724 122.897 162.54 122.777 163.644C122.681 164.388 122.813 164.976 123.173 165.408C123.557 165.816 124.073 166.14 124.721 166.38C125.393 166.596 126.125 166.788 126.917 166.956C127.733 167.1 128.537 167.268 129.329 167.46C130.145 167.652 130.877 167.928 131.525 168.288C132.173 168.624 132.665 169.104 133.001 169.728C133.361 170.352 133.481 171.168 133.361 172.176C133.241 173.136 132.893 174.024 132.317 174.84C131.741 175.632 130.901 176.268 129.797 176.748C128.693 177.204 127.277 177.432 125.549 177.432ZM144.301 177.432C142.909 177.432 141.673 177.06 140.593 176.316C139.537 175.548 138.745 174.468 138.217 173.076C137.713 171.66 137.581 169.968 137.821 168C138.085 165.96 138.637 164.244 139.477 162.852C140.341 161.46 141.397 160.404 142.645 159.684C143.893 158.94 145.213 158.568 146.605 158.568C147.637 158.568 148.561 158.748 149.377 159.108C150.193 159.468 150.865 159.936 151.393 160.512C151.921 161.088 152.257 161.712 152.401 162.384L152.833 159H154.849L152.617 177H150.601L151.033 173.688C150.649 174.504 150.073 175.2 149.305 175.776C148.561 176.328 147.733 176.736 146.821 177C145.933 177.288 145.093 177.432 144.301 177.432ZM144.949 175.632C146.101 175.632 147.145 175.344 148.081 174.768C149.041 174.168 149.833 173.304 150.457 172.176C151.105 171.048 151.537 169.656 151.753 168C151.945 166.296 151.813 164.88 151.357 163.752C150.925 162.624 150.301 161.784 149.485 161.232C148.669 160.656 147.781 160.368 146.821 160.368C145.453 160.368 144.289 160.692 143.329 161.34C142.393 161.964 141.637 162.84 141.061 163.968C140.509 165.096 140.137 166.416 139.945 167.928C139.777 169.464 139.861 170.808 140.197 171.96C140.557 173.112 141.145 174.012 141.961 174.66C142.777 175.308 143.773 175.632 144.949 175.632ZM162.422 162.528C162.734 161.856 163.202 161.22 163.826 160.62C164.474 160.02 165.254 159.528 166.166 159.144C167.078 158.76 168.074 158.568 169.154 158.568C170.57 158.568 171.806 158.952 172.862 159.72C173.918 160.464 174.698 161.544 175.202 162.96C175.73 164.352 175.874 166.032 175.634 168C175.394 170.016 174.854 171.732 174.014 173.148C173.198 174.54 172.178 175.608 170.954 176.352C169.73 177.072 168.362 177.432 166.85 177.432C165.842 177.432 164.93 177.24 164.114 176.856C163.298 176.472 162.626 175.98 162.098 175.38C161.57 174.756 161.222 174.12 161.054 173.472L160.622 177H158.606L161.702 151.8H163.718L162.422 162.528ZM168.506 160.368C167.57 160.368 166.61 160.656 165.626 161.232C164.666 161.784 163.826 162.624 163.106 163.752C162.386 164.88 161.918 166.296 161.702 168C161.51 169.704 161.63 171.12 162.062 172.248C162.518 173.376 163.154 174.228 163.97 174.804C164.81 175.356 165.698 175.632 166.634 175.632C168.002 175.632 169.154 175.32 170.09 174.696C171.05 174.048 171.806 173.16 172.358 172.032C172.934 170.88 173.318 169.56 173.51 168.072C173.702 166.536 173.618 165.192 173.258 164.04C172.898 162.888 172.31 161.988 171.494 161.34C170.702 160.692 169.706 160.368 168.506 160.368ZM179.624 177L182.72 151.8H184.736L181.64 177H179.624ZM195.052 177.468C193.3 177.468 191.836 177.096 190.66 176.352C189.484 175.584 188.644 174.492 188.14 173.076C187.636 171.66 187.504 169.992 187.744 168.072C187.936 166.584 188.296 165.264 188.824 164.112C189.376 162.936 190.072 161.94 190.912 161.124C191.752 160.284 192.712 159.648 193.792 159.216C194.872 158.784 196.024 158.568 197.248 158.568C198.784 158.568 200.116 158.916 201.244 159.612C202.396 160.308 203.248 161.316 203.8 162.636C204.376 163.932 204.544 165.516 204.304 167.388L204.196 168.396H189.4L189.616 166.596H202.252C202.324 165.876 202.276 165.156 202.108 164.436C201.964 163.692 201.688 163.02 201.28 162.42C200.872 161.796 200.32 161.304 199.624 160.944C198.952 160.56 198.136 160.368 197.176 160.368C195.616 160.368 194.32 160.716 193.288 161.412C192.28 162.084 191.488 163.008 190.912 164.184C190.36 165.36 189.988 166.692 189.796 168.18C189.628 169.692 189.712 171.012 190.048 172.14C190.408 173.268 191.032 174.144 191.92 174.768C192.832 175.368 193.996 175.668 195.412 175.668C196.564 175.668 197.56 175.452 198.4 175.02C199.264 174.588 199.972 174.048 200.524 173.4C201.1 172.752 201.532 172.104 201.82 171.456L203.692 171.816C203.284 172.8 202.696 173.724 201.928 174.588C201.16 175.452 200.212 176.148 199.084 176.676C197.956 177.204 196.612 177.468 195.052 177.468ZM11.396 213.468C9.644 213.468 8.18 213.096 7.004 212.352C5.828 211.584 4.988 210.492 4.484 209.076C3.98 207.66 3.848 205.992 4.088 204.072C4.28 202.584 4.64 201.264 5.168 200.112C5.72 198.936 6.416 197.94 7.256 197.124C8.096 196.284 9.056 195.648 10.136 195.216C11.216 194.784 12.368 194.568 13.592 194.568C15.128 194.568 16.46 194.916 17.588 195.612C18.74 196.308 19.592 197.316 20.144 198.636C20.72 199.932 20.888 201.516 20.648 203.388L20.54 204.396H5.744L5.96 202.596H18.596C18.668 201.876 18.62 201.156 18.452 200.436C18.308 199.692 18.032 199.02 17.624 198.42C17.216 197.796 16.664 197.304 15.968 196.944C15.296 196.56 14.48 196.368 13.52 196.368C11.96 196.368 10.664 196.716 9.632 197.412C8.624 198.084 7.832 199.008 7.256 200.184C6.704 201.36 6.332 202.692 6.14 204.18C5.972 205.692 6.056 207.012 6.392 208.14C6.752 209.268 7.376 210.144 8.264 210.768C9.176 211.368 10.34 211.668 11.756 211.668C12.908 211.668 13.904 211.452 14.744 211.02C15.608 210.588 16.316 210.048 16.868 209.4C17.444 208.752 17.876 208.104 18.164 207.456L20.036 207.816C19.628 208.8 19.04 209.724 18.272 210.588C17.504 211.452 16.556 212.148 15.428 212.676C14.3 213.204 12.956 213.468 11.396 213.468ZM24.8009 213L27.0329 195H29.0489L28.5809 198.744C28.7009 198.432 28.9049 198.048 29.1929 197.592C29.5049 197.112 29.9249 196.644 30.4529 196.188C30.9809 195.732 31.6289 195.348 32.3969 195.036C33.1889 194.724 34.1249 194.568 35.2049 194.568C36.3809 194.568 37.4249 194.844 38.3369 195.396C39.2729 195.924 39.9809 196.704 40.4609 197.736C40.9649 198.744 41.1209 199.968 40.9289 201.408L39.4889 213H37.4729L38.8409 201.84C39.0809 200.016 38.7689 198.648 37.9049 197.736C37.0409 196.824 35.8769 196.368 34.4129 196.368C33.2369 196.368 32.1929 196.704 31.2809 197.376C30.3689 198.048 29.6249 198.912 29.0489 199.968C28.4969 201.024 28.1489 202.128 28.0049 203.28L26.8169 213H24.8009ZM58.6266 213L60.6426 196.8H57.3306L57.5466 195H60.8586L61.1826 192.264C61.3266 191.136 61.6026 190.188 62.0106 189.42C62.4186 188.652 62.9706 188.076 63.6666 187.692C64.3866 187.284 65.2506 187.08 66.2586 187.08C66.5466 187.08 66.8586 187.104 67.1946 187.152C67.5546 187.2 67.8906 187.272 68.2026 187.368L67.9866 189.168C67.6986 189.12 67.4106 189.084 67.1226 189.06C66.8346 189.036 66.5706 189.024 66.3306 189.024C65.4666 189.024 64.7706 189.24 64.2426 189.672C63.7146 190.104 63.3666 190.98 63.1986 192.3L62.8746 195H67.4466L67.2306 196.8H62.6586L60.6426 213H58.6266ZM75.7243 213.432C74.2363 213.432 72.9163 213.084 71.7643 212.388C70.6123 211.668 69.7483 210.612 69.1723 209.22C68.5963 207.804 68.4283 206.064 68.6683 204C68.8603 202.44 69.2443 201.084 69.8203 199.932C70.3963 198.756 71.1043 197.772 71.9443 196.98C72.8083 196.164 73.7563 195.564 74.7883 195.18C75.8443 194.772 76.9243 194.568 78.0283 194.568C79.5163 194.568 80.8363 194.928 81.9883 195.648C83.1403 196.344 84.0043 197.4 84.5803 198.816C85.1803 200.208 85.3483 201.936 85.0843 204C84.8923 205.536 84.5083 206.892 83.9323 208.068C83.3563 209.244 82.6363 210.24 81.7723 211.056C80.9323 211.848 79.9963 212.448 78.9643 212.856C77.9323 213.24 76.8523 213.432 75.7243 213.432ZM75.9403 211.632C77.9323 211.632 79.5283 210.948 80.7283 209.58C81.9523 208.188 82.7083 206.328 82.9963 204C83.2843 201.672 82.9843 199.824 82.0963 198.456C81.2323 197.064 79.8043 196.368 77.8123 196.368C75.8203 196.368 74.2123 197.064 72.9883 198.456C71.7883 199.824 71.0443 201.672 70.7563 204C70.4683 206.328 70.7563 208.188 71.6203 209.58C72.5083 210.948 73.9483 211.632 75.9403 211.632ZM89.4533 213L91.6853 195H93.7013L93.2333 198.744C93.3533 198.432 93.5573 198.048 93.8453 197.592C94.1573 197.112 94.5773 196.644 95.1053 196.188C95.6333 195.732 96.2813 195.348 97.0493 195.036C97.8413 194.724 98.7773 194.568 99.8573 194.568C100.073 194.568 100.289 194.58 100.505 194.604C100.721 194.604 100.937 194.628 101.153 194.676L100.865 196.836C100.601 196.74 100.313 196.68 100.001 196.656C99.6893 196.608 99.3653 196.584 99.0293 196.584C97.8533 196.584 96.8093 196.908 95.8973 197.556C94.9853 198.18 94.2533 199.008 93.7013 200.04C93.1493 201.048 92.8013 202.128 92.6573 203.28L91.4693 213H89.4533ZM102.953 213L105.185 195H107.201L106.733 198.744C106.853 198.432 107.057 198.048 107.345 197.592C107.657 197.112 108.077 196.644 108.605 196.188C109.133 195.732 109.781 195.348 110.549 195.036C111.341 194.724 112.277 194.568 113.357 194.568C114.533 194.568 115.577 194.844 116.489 195.396C117.425 195.924 118.133 196.704 118.613 197.736C119.117 198.744 119.273 199.968 119.081 201.408L117.641 213H115.625L116.993 201.84C117.233 200.016 116.921 198.648 116.057 197.736C115.193 196.824 114.029 196.368 112.565 196.368C111.389 196.368 110.345 196.704 109.433 197.376C108.521 198.048 107.777 198.912 107.201 199.968C106.649 201.024 106.301 202.128 106.157 203.28L104.969 213H102.953ZM128.297 213L129.665 201.84C129.905 200.016 129.593 198.648 128.729 197.736C127.865 196.824 126.701 196.368 125.237 196.368C124.061 196.368 123.017 196.692 122.105 197.34C121.193 197.964 120.461 198.804 119.909 199.86C119.357 200.892 118.997 202.032 118.829 203.28L118.937 199.356C119.057 199.044 119.285 198.624 119.621 198.096C119.981 197.568 120.449 197.04 121.025 196.512C121.625 195.96 122.333 195.504 123.149 195.144C123.989 194.76 124.949 194.568 126.029 194.568C127.205 194.568 128.249 194.844 129.161 195.396C130.097 195.924 130.805 196.704 131.285 197.736C131.789 198.744 131.945 199.968 131.753 201.408L130.313 213H128.297ZM142.754 213.432C141.362 213.432 140.126 213.06 139.046 212.316C137.99 211.548 137.198 210.468 136.67 209.076C136.166 207.66 136.034 205.968 136.274 204C136.538 201.96 137.09 200.244 137.93 198.852C138.794 197.46 139.85 196.404 141.098 195.684C142.346 194.94 143.666 194.568 145.058 194.568C146.09 194.568 147.014 194.748 147.83 195.108C148.646 195.468 149.318 195.936 149.846 196.512C150.374 197.088 150.71 197.712 150.854 198.384L151.286 195H153.302L151.07 213H149.054L149.486 209.688C149.102 210.504 148.526 211.2 147.758 211.776C147.014 212.328 146.186 212.736 145.274 213C144.386 213.288 143.546 213.432 142.754 213.432ZM143.402 211.632C144.554 211.632 145.598 211.344 146.534 210.768C147.494 210.168 148.286 209.304 148.91 208.176C149.558 207.048 149.99 205.656 150.206 204C150.398 202.296 150.266 200.88 149.81 199.752C149.378 198.624 148.754 197.784 147.938 197.232C147.122 196.656 146.234 196.368 145.274 196.368C143.906 196.368 142.742 196.692 141.782 197.34C140.846 197.964 140.09 198.84 139.514 199.968C138.962 201.096 138.59 202.416 138.398 203.928C138.23 205.464 138.314 206.808 138.65 207.96C139.01 209.112 139.598 210.012 140.414 210.66C141.23 211.308 142.226 211.632 143.402 211.632ZM162.675 213.396C161.139 213.396 160.071 212.952 159.471 212.064C158.871 211.176 158.679 209.892 158.895 208.212L160.263 196.836H157.023L157.275 195H158.103C158.847 195 159.399 194.952 159.759 194.856C160.143 194.76 160.407 194.532 160.551 194.172C160.719 193.812 160.851 193.248 160.947 192.48L161.199 190.428H163.071L162.531 195.036H167.175L166.923 196.836H162.279L160.911 208.176C160.743 209.496 160.875 210.372 161.307 210.804C161.739 211.236 162.387 211.452 163.251 211.452C163.491 211.452 163.755 211.44 164.043 211.416C164.331 211.392 164.619 211.356 164.907 211.308L164.691 213.108C164.379 213.204 164.031 213.276 163.647 213.324C163.287 213.372 162.963 213.396 162.675 213.396ZM173.96 191.94C173.504 191.94 173.12 191.772 172.808 191.436C172.52 191.1 172.4 190.704 172.448 190.248C172.496 189.768 172.712 189.36 173.096 189.024C173.504 188.688 173.936 188.52 174.392 188.52C174.848 188.52 175.208 188.688 175.472 189.024C175.76 189.36 175.88 189.768 175.832 190.248C175.784 190.704 175.568 191.1 175.184 191.436C174.824 191.772 174.416 191.94 173.96 191.94ZM170.324 213L172.556 195H174.572L172.34 213H170.324ZM185.377 213.432C183.889 213.432 182.569 213.084 181.417 212.388C180.265 211.668 179.401 210.612 178.825 209.22C178.249 207.804 178.081 206.064 178.321 204C178.513 202.44 178.897 201.084 179.473 199.932C180.049 198.756 180.757 197.772 181.597 196.98C182.461 196.164 183.409 195.564 184.441 195.18C185.497 194.772 186.577 194.568 187.681 194.568C189.169 194.568 190.489 194.928 191.641 195.648C192.793 196.344 193.657 197.4 194.233 198.816C194.833 200.208 195.001 201.936 194.737 204C194.545 205.536 194.161 206.892 193.585 208.068C193.009 209.244 192.289 210.24 191.425 211.056C190.585 211.848 189.649 212.448 188.617 212.856C187.585 213.24 186.505 213.432 185.377 213.432ZM185.593 211.632C187.585 211.632 189.181 210.948 190.381 209.58C191.605 208.188 192.361 206.328 192.649 204C192.937 201.672 192.637 199.824 191.749 198.456C190.885 197.064 189.457 196.368 187.465 196.368C185.473 196.368 183.865 197.064 182.641 198.456C181.441 199.824 180.697 201.672 180.409 204C180.121 206.328 180.409 208.188 181.273 209.58C182.161 210.948 183.601 211.632 185.593 211.632ZM199.106 213L201.338 195H203.354L202.886 198.744C203.006 198.432 203.21 198.048 203.498 197.592C203.81 197.112 204.23 196.644 204.758 196.188C205.286 195.732 205.934 195.348 206.702 195.036C207.494 194.724 208.43 194.568 209.51 194.568C210.686 194.568 211.73 194.844 212.642 195.396C213.578 195.924 214.286 196.704 214.766 197.736C215.27 198.744 215.426 199.968 215.234 201.408L213.794 213H211.778L213.146 201.84C213.386 200.016 213.074 198.648 212.21 197.736C211.346 196.824 210.182 196.368 208.718 196.368C207.542 196.368 206.498 196.704 205.586 197.376C204.674 198.048 203.93 198.912 203.354 199.968C202.802 201.024 202.454 202.128 202.31 203.28L201.122 213H199.106Z" fill="black"/>
</svg>
