<?xml version="1.0" standalone="no"?>
<!DOCTYPE svg PUBLIC "-//W3C//DTD SVG 1.1//EN" "http://www.w3.org/Graphics/SVG/1.1/DTD/svg11.dtd">
<svg xmlns="http://www.w3.org/2000/svg">
  <defs>
    <font id="InclusiveSans" horiz-adv-x="574">
      <font-face font-family="Inclusive Sans" units-per-em="1000" panose-1="0 0 0 0 0 0 0 0 0 0" ascent="950" descent="-250" alphabetic="0"/>
      <glyph unicode=" " glyph-name="gid135" horiz-adv-x="300"/>
      <glyph unicode="!" glyph-name="gid142" horiz-adv-x="361" d="M120,231L105,700H256L242,231H120ZM181-12q-36,0-61.5,25.5T94,75q0,35 25.5,60T181,160q35,0 60.5-25T267,75q0-36-25.5-61.5T181-12Z"/>
      <glyph unicode="&quot;" glyph-name="gid174" horiz-adv-x="566" d="M381,401q-4,18-14,48.5t-21.5,65t-20,66T317,632q0,41 25.5,65T402,721t59-24t25-65q0-20-8-51.5t-19.5-66t-21.5-65T422,401H381Zm-236,0q-4,18-14.5,48.5t-22,65t-20,66T80,632q0,41 25.5,65T167,721q32,0 57-24t25-65q0-20-8-51.5t-19.5-66t-21.5-65T186,401H145Z"/>
      <glyph unicode="#" glyph-name="gid149" horiz-adv-x="800" d="M375,0L548,720H682L509,0H375ZM65,152V278H688V152H65ZM123,0L296,720H430L257,0H123Zm-5,416V542H735V416H118Z"/>
      <glyph unicode="$" glyph-name="gid186" horiz-adv-x="639" d="M313-12Q240-12 189.5,8t-83,54T57,137.5T35,222H191q7-37 25-60t43.5-33.5T313,118q31,0 55,8t38.5,23T421,186q0,33-19.5,51.5t-52,30t-71,21t-77,23.5t-71,38t-52,64T59,516q0,51 27,96t83.5,72.5T314,712q67,0 114.5-19.5t78-50.5T552,575t17-70H416q-4,25-17.5,42t-35,26T314,582q-22,0-45.5-6t-40-22T212,508q0-26 19.5-42.5t52-27.5T355,416.5T432.5,391t71-39t52-62T575,195q0-68-32.5-114.5T451.5,11T313-12ZM248-112V812H388V-112H248Z"/>
      <glyph unicode="%" glyph-name="gid200" horiz-adv-x="950" d="M215,0L599,700H736L352,0H215Zm18,353q-46,0-84.5,20.5T87,434.5T64,533q0,56 24,96t62.5,61.5T233,712q46,0 84.5-21.5T379,629t23-96q0-58-24-98t-62.5-61T233,353Zm0,102q21,0 35.5,11.5T291,496t8,37q0,21-7.5,38.5t-22,28T233,610q-21,0-36-11t-22.5-28.5T167,533q0-31 17-54.5T233,455ZM717-12q-46,0-84.5,20.5T571,69.5T548,168q0,56 24,96t62.5,61.5T717,347q46,0 84.5-21.5T863,264t23-96q0-58-24-98T799.5,9T717-12Zm0,101q21,0 35.5,11.5t22.5,30t8,37.5q0,21-7.5,38.5t-22,28.5T717,246q-21,0-36-11t-22.5-29T651,168q0-31 17-55t49-24Z"/>
      <glyph unicode="&amp;" glyph-name="gid177" horiz-adv-x="732" d="M332-12q-89,0-148,25.5T95.5,84T66,188q0,51 25,88t71.5,70T273,418q36,22 60.5,43.5t37,40.5T383,535q0,25-16.5,41T327,592q-15,0-27.5-7.5t-20-20T272,535q0-35 17.5-57T332,426L696,80L607-12L186,380q-17,20-31.5,41t-23,49.5T123,542q0,47 25.5,85.5t72,62T328,713q57,0 103.5-19t74-57T533,542q0-37-24-75.5t-68-76T336,317q-46-27-72.5-45.5t-37-35.5T216,194q0-22 12-40.5T266,124t66-11q43,0 78.5,21.5t61,58t39,84T524,375H656q0-49-12-103T606.5,167.5t-64-91T451.5,12T332-12Z"/>
      <glyph unicode="&apos;" glyph-name="gid175" horiz-adv-x="329" d="M145,401q-4,18-14.5,48.5t-22,65t-20,66T80,632q0,41 25.5,65T167,721q32,0 57-24t25-65q0-20-8-51.5t-19.5-66t-21.5-65T186,401H145Z"/>
      <glyph unicode="(" glyph-name="gid158" horiz-adv-x="394" d="M187-159q0,0-14,22.5t-34.5,64T97,26.5t-35,129T48,309q0,81 14,152T96.5,589.5t41,99t34.5,64T186,775H325q1-1-18-31.5t-44.5-89T217.5,509T198,309q0-114 19.5-201.5T263-39t45-89t18-31H187Z"/>
      <glyph unicode=")" glyph-name="gid159" horiz-adv-x="394" d="M207-159H68q-1,1 18,31t45,89t45.5,146.5T196,309q0,113-19.5,200t-45,145.5T87,743.5T69,775H208q0,0 14-22.5t34.5-64t41-99T332,461t14-152q0-82-14-153.5t-34.5-129T256-72.5t-35-64T207-159Z"/>
      <glyph unicode="*" glyph-name="gid148" horiz-adv-x="512" d="M159,311L80,374L214,533l32-77L50,548l45,98l171-78l-61-49V712H315V522l-63,48l166,76l44-95L270,459l33,74L437,374l-76-64L207,489H307L159,311Z"/>
      <glyph unicode="+" glyph-name="gid190" horiz-adv-x="629" d="M247,41V549H382V41H247ZM68,232V358H561V232H68Z"/>
      <glyph unicode="," glyph-name="gid138" horiz-adv-x="293" d="M58-144q0,0 0,11t0,21.5T58-101t13.5,4.5t31,15.5t31,31.5T147,3q-2-1-5.5-1T135,2Q102,2 80,24.5T58,76q0,32 21.5,58T138,160q33,0 53-15.5t29-39T229,58q0-30-9.5-64.5T190-72.5T137.5-124T58-144Z"/>
      <glyph unicode="-" glyph-name="gid154" horiz-adv-x="526" d="M65,230V358H461V230H65Z"/>
      <glyph unicode="." glyph-name="gid137" horiz-adv-x="328" d="M170-16q-37,0-63.5,26.5T80,74q0,36 26.5,61.5T170,161q36,0 62.5-25.5T259,74q0-37-26.5-63.5T170-16Z"/>
      <glyph unicode="/" glyph-name="gid150" horiz-adv-x="482" d="M8-161L362,775H502L148-161H8Z"/>
      <glyph unicode="0" glyph-name="gid125" horiz-adv-x="677" d="M340-13q-75,0-129.5,30T121,98.5T69,216T52,354q0,76 17,141t52.5,114T211,685t129,27q74,0 127.5-27T556,609t52-114t17-141q0-72-16.5-138T557,98.5T468,17T340-13Zm0,130q50,0 82,30t47.5,83.5T485,355q0,73-15.5,123.5t-47,77T341,582q-52,0-85-26.5t-48.5-77T192,355q0-71 15.5-124.5t48-83.5T340,117ZM152,86L397,610H527L282,86H152Z"/>
      <glyph unicode="1" glyph-name="gid126" horiz-adv-x="512" d="M53,0V126H184V467H57V592q59,0 89,7.5T186.5,630T197,699H330V126H459V0H53Z"/>
      <glyph unicode="2" glyph-name="gid127" horiz-adv-x="574" d="M56,1V107q0,56 21.5,96.5T133,274t72,55.5T277,380t55.5,56T354,509q0,17-8,33.5t-25,28T278,582q-31,0-49-13t-26-34.5T195,487H49q0,27 4,64t20,64q27,47 76.5,72T279,712q61,0 113-22.5t84-66T508,518q0-60-21-104.5t-54.5-77t-71-57.5t-71-48T236,183.5T215,127H519V1H56Z"/>
      <glyph unicode="3" glyph-name="gid128" horiz-adv-x="598" d="M297-12Q236-12 184.5,6t-87,53T48,144q-3,14-5,28.5T41,203l132,31q0-9 1.5-18.5T178,197q12-40 39.5-59.5T293,118q30,0 56,11.5t41.5,33T406,215q0,55-31,79t-84,24H215V423L362,574H73V700H519V574L376,423q46-4 86-28t64.5-68T551,218q0-69-30.5-121T433,16.5T297-12Z"/>
      <glyph unicode="4" glyph-name="gid129" horiz-adv-x="661" d="M369,1V121H45V238L351,701H515V248H622V121H515V1H369ZM202,248H369V504L202,248Z"/>
      <glyph unicode="5" glyph-name="gid130" horiz-adv-x="616" d="M317-12q-75,0-129,25.5T101.5,81T57,172l138,44q9-46 39-72t80-26q31,0 55.5,17.5t39,46.5T423,243q0,41-16.5,68.5T363,353t-59,14q-39,0-65-19t-37-46L73,333l56,367H518V574H239L218,461q6,6 22.5,12T280,483t48,4q69,0 124.5-29t88-83.5T573,243q0-78-34-135.5T447.5,19T317-12Z"/>
      <glyph unicode="6" glyph-name="gid131" horiz-adv-x="600" d="M308-12q-81,0-138.5,32.5t-88,88T51,233q0,33 5.5,66.5T73,367t26,67L224,700H376L265,460q0,0 19.5,8.5T338,477q71,0 121-32.5T536,357t27-124T530.5,108.5T441,20.5T308-12Zm1,121q40,0 64,18t34.5,47.5T418,237q0,27-10.5,54.5t-35.5,46T305,356q-38,0-62-18.5t-35.5-46T196,237q0-33 11.5-62.5T244,127t65-18Z"/>
      <glyph unicode="7" glyph-name="gid132" horiz-adv-x="502" d="M119,1L354,574H35V700H492V574L262,1H119Z"/>
      <glyph unicode="8" glyph-name="gid133" horiz-adv-x="653" d="M326-12q-80,0-141,27T89.5,90.5T55,203q0,62 29,108t75,73q-30,23-50,60T89,530q0,55 29,95.5T200,689t125,23q74,0 127-23t81.5-63.5T562,530q0-49-19-85.5T492,384q47-27 76.5-73T598,203q0-64-36.5-112.5T463.5,15T326-12Zm1,128q44,0 69.5,12.5T433,163t11,49q0,24-11,45.5t-37,35T325,306q-40,0-66-13.5t-38-35T209,212q0-27 12-49t38.5-34.5T327,116Zm-1,317q23,0 42.5,8.5t31.5,26T412,512q0,19-12,35.5T368,574t-44,10t-43.5-10T250,547.5T239,512q0-27 12-44.5t31.5-26T326,433Z"/>
      <glyph unicode="9" glyph-name="gid134" horiz-adv-x="597" d="M310,712q81,0 138.5-32.5t88-87.5T567,467q0-30-5.5-62.5t-16-66T519,271L394,0H242L353,240q0,0-19-8.5T280,223q-70,0-120.5,31T82,340.5T55,467q0,70 32.5,125t90,87.5T310,712Zm-1-121q-40,0-64-17t-34.5-44.5T200,468q0-27 11-55.5T246.5,364T313,344q38,0 62,20t35.5,48.5T422,468q0,34-11.5,61.5T374,574t-65,17Z"/>
      <glyph unicode=":" glyph-name="gid139" horiz-adv-x="333" d="M167-12q-36,0-61.5,25.5T80,75q0,35 25.5,60T167,160q35,0 60.5-25T253,75q0-36-25.5-61.5T167-12Zm0,341q-36,0-61.5,25.5T80,416q0,35 25.5,60T167,501q35,0 60.5-25T253,416q0-36-25.5-61.5T167,329Z"/>
      <glyph unicode=";" glyph-name="gid140" horiz-adv-x="333" d="M81-144q0,0 0,11t0,21.5T81-101t13.5,4.5t31,15.5t31,31.5T170,3q-2-1-5.5-1T158,2q-33,0-55,22.5T81,76q0,32 21.5,58T161,160q33,0 53-15.5t29-39T252,58q0-30-9.5-64.5T213-72.5T160.5-124T81-144Zm86,473q-36,0-61.5,25.5T80,416q0,35 25.5,60T167,501q35,0 60.5-25T253,416q0-36-25.5-61.5T167,329Z"/>
      <glyph unicode="&lt;" glyph-name="gid196" horiz-adv-x="583" d="M535,28L68,247v97L535,563V432L127,252v90L535,162V28Z"/>
      <glyph unicode="=" glyph-name="gid194" horiz-adv-x="626" d="M68,347V473H558V347H68Zm0-230V243H558V117H68Z"/>
      <glyph unicode="&gt;" glyph-name="gid195" horiz-adv-x="583" d="M48,28V162L456,342V252L48,432V563L515,344V247L48,28Z"/>
      <glyph unicode="?" glyph-name="gid144" horiz-adv-x="528" d="M165,209q0,55 12,90t31.5,57.5t41,39t41,33T322,468t12,59q0,25-17,44t-52,19q-27,0-42.5-10.5t-22-29T194,508H42q0,27 6.5,62T66,624q27,47 77,71.5T266,720q66,0 116-22.5T460,633t28-102q0-51-12.5-85.5t-32-57.5t-41-40.5t-41-35.5t-32-42T317,209H165ZM243-16q-36,0-61.5,25.5T156,71q0,35 25.5,60T243,156q35,0 60.5-25T329,71q0-36-25.5-61.5T243-16Z"/>
      <glyph unicode="@" glyph-name="gid176" horiz-adv-x="996" d="M479,162q26,0 44.5,12.5t30.5,37T570,270q4,26-2,49.5t-23,38T497,372q-24,0-43-11.5t-31-32T407,280q-4-31 3-58t24.5-43.5T479,162ZM700,55q-24,0-51.5,15.5t-45,41T590,167q-8-20-23.5-47t-45-46.5T443,54q-52,0-92.5,29.5t-61,79.5T275,276q7,66 37.5,111t74,68T476,478q44,0 71.5-21.5T587,403l6,66H712L691,245q-3-28 2-48.5T723,176q17,0 32,12.5t26.5,35t18,52.5t6.5,64q0,90-40,145T657.5,565T504,590q-68,0-125.5-26.5t-99.5-72T213.5,388T190,267q0-74 23-134.5T278.5,29T379-37.5T507-61q83,0 145.5,17.5T781,14L839-88q-44-30-93.5-51.5T637-172T507-183q-107,0-191,35.5T173-50T83,93T52,264q0,96 31.5,177.5t91,142t143,94.5T504,712q104,0 186-28.5t138.5-79t86-118T944,340q0-63-21-115.5T866.5,134t-79-58.5T700,55Z"/>
      <glyph unicode="A" glyph-name="gid1" horiz-adv-x="669" d="M5,0L250,700H400L163,0H5ZM179,161V287H501V161H179ZM512,0L282,700H420L664,0H512Z"/>
      <glyph unicode="B" glyph-name="gid10" horiz-adv-x="701" d="M109,0V701H394q74,0 124-24.5t75-66T618,518q0-63-26-100.5T532,363q59-16 92-58t33-101q0-95-63.5-149.5T402,0H109ZM255,126H382q58,0 89.5,18T503,211q0,40-30.5,61T392,293q0,0-14,0t-34,0t-40.5,0T269,293t-14,0V126Zm0,293H377q41,0 64.5,19T465,504q0,34-23.5,52.5T376,575q0,0-12,0t-30.5,0T297,575t-30,0t-12,0V419Z"/>
      <glyph unicode="C" glyph-name="gid11" horiz-adv-x="684" d="M383-12q-92,0-155.5,31T125,102.5t-56.5,118T51,355q0,73 20,137.5t61,114t103,78T381,713q65,0 121-27t95.5-74.5T651,502L510,474q-7,29-27,54t-47,40t-57,15q-60,0-98.5-27t-57-77.5T205,357q0-79 19.5-132t59-79.5T383,119q28,0 54.5,13.5t46,37.5T510,227l141-28q-14-61-48-109T514,15T383-12Z"/>
      <glyph unicode="D" glyph-name="gid13" horiz-adv-x="723" d="M90,0V700H338q115,0 189.5-44t111-122.5T675,349q0-104-36.5-182.5T527.5,44T338,0H90ZM236,126H341q59,0 99,23t60.5,72.5T521,350T500.5,478T440,550.5T341,574H236V126Z"/>
      <glyph unicode="E" glyph-name="gid15" horiz-adv-x="589" d="M90,0V700H547V574H236V423H496V297H236V126H547V0H90Z"/>
      <glyph unicode="F" glyph-name="gid20" horiz-adv-x="577" d="M90,0V700H547V574H236V423H496V297H236V0H90Z"/>
      <glyph unicode="G" glyph-name="gid21" horiz-adv-x="726" d="M386-12q-94,0-159,31T122.5,102.5t-57,118T48,355q0,73 20.5,137.5t62,114T236,684t150,28q68,0 125.5-27T608,611t53-109L520,474q-7,29-27,54t-47.5,40T386,583q-63,0-104-27t-60.5-77.5T202,357q0-79 19.5-132T282,145.5T386,119q32,0 63.5,16.5t54,48T529,260H379V380H664V0H566q0,0-2,12t-4,28t-4,28t-2,12q-19-33-47.5-53.5T446.5-3T386-12Z"/>
      <glyph unicode="H" glyph-name="gid22" horiz-adv-x="754" d="M90,0V700H236V427H518V700H664V0H518V301H236V0H90Z"/>
      <glyph unicode="I" glyph-name="gid23" horiz-adv-x="533" d="M80,0V122H194V578H80V700H453V578H340V122H453V0H80Z"/>
      <glyph unicode="J" glyph-name="gid28" horiz-adv-x="575" d="M256-12Q151-12 83.5,41.5T2,183l127,44q8-43 38.5-76T255,118q37,0 58.5,20T345,190.5T355,260V700H501V261q0-128-58-200.5T256-12Z"/>
      <glyph unicode="K" glyph-name="gid30" horiz-adv-x="665" d="M90,0V700H236V404L491,700H651L236,224V0H90ZM491,0L313,340L415,450L661,0H491Z"/>
      <glyph unicode="L" glyph-name="gid31" horiz-adv-x="579" d="M90,0V700H236V126H565V0H90Z"/>
      <glyph unicode="M" glyph-name="gid32" horiz-adv-x="905" d="M453,244L644,700H815V0H669V430L523,62H388L236,429V0H90V700H262L453,244Z"/>
      <glyph unicode="N" glyph-name="gid33" horiz-adv-x="732" d="M84,0V700H240L535,204H503V700H649V0H505L198,504h32V0H84Z"/>
      <glyph unicode="O" glyph-name="gid35" horiz-adv-x="758" d="M380-11q-84,0-146.5,27.5T130,93.5T68.5,209T48,351T68.5,493T130,608.5t103.5,77T380,713t146-27.5t103-77T690,493t20-142T690,209T629,93.5t-103-77T380-11Zm0,126q61,0 100,26.5T537.5,221T556,351q0,78-18.5,130.5t-57.5,79T380,587q-57,0-97-26.5t-60.5-79T202,351q0-77 20.5-130T283,141.5T380,115Z"/>
      <glyph unicode="P" glyph-name="gid43" horiz-adv-x="638" d="M90-1V701H390q67,0 118-29t80.5-82T618,465q0-64-27.5-117.5t-79-85T388,231H238V-1H90ZM236,357H365q48,0 73.5,33.5T464,467q0,45-26,76.5T365,575H236V357Z"/>
      <glyph unicode="Q" glyph-name="gid45" horiz-adv-x="734" d="M374-11q-84,0-145.5,29T127,97.5t-59.5,116T48,351T67.5,488.5t59.5,116T228.5,684T374,713t145-29t101-79.5t59-116T698,351T679,213.5t-59-116T519,18T374-11Zm247-94L341,226l89,73L711-30l-90-75ZM374,111q75,0 116,33.5T547.5,233T564,351q0,42-9,84.5t-30,78t-58,57T374,592t-93.5-21.5t-59.5-57t-31.5-78T180,351q0-63 18.5-118T260,144.5T374,111Z"/>
      <glyph unicode="R" glyph-name="gid46" horiz-adv-x="699" d="M90-1V701H390q67,0 118-25.5T588.5,600T618,478q0-68-27.5-119.5t-79-79.5T388,251H238V-1H90ZM494,0L330,269l159,14L667,0H494ZM236,377H365q32,0 54,11t33.5,34T464,480q0,40-26,67.5T365,575H236V377Z"/>
      <glyph unicode="S" glyph-name="gid47" horiz-adv-x="611" d="M313-12Q240-12 189.5,8t-83,54T57,137.5T35,222H191q7-37 25-60t43.5-33.5T313,118q31,0 55,8t38.5,23T421,186q0,33-19.5,52t-52,30.5t-71,21.5t-77,23.5t-71,36T78.5,409T59,504q0,51 27,98.5T169.5,681T314,712q67,0 114.5-19.5t78-50.5T552,575t17-70H416q-4,25-17.5,42t-35,26T314,582q-22,0-45.5-6t-40-21.5T212,509q0-26 19.5-42.5t52-27.5T355,417.5T432.5,392t71-38.5t52-60.5T575,200q0-68-32.5-115.5t-91-72T313-12Z"/>
      <glyph unicode="T" glyph-name="gid48" horiz-adv-x="596" d="M223,0V574H40V700H556V574H369V0H223Z"/>
      <glyph unicode="U" glyph-name="gid49" horiz-adv-x="694" d="M351-12q-86,0-150,35t-98.5,99.5T68,275V701H214V275q0-68 32.5-112.5T347,118q44,0 73.5,20.5t44.5,56T480,275V701H626V275q0-133-71.5-210T351-12Z"/>
      <glyph unicode="V" glyph-name="gid54" horiz-adv-x="663" d="M2,700H160L397,0H247L2,700Zm507,0H661L417,0H279L509,700Z"/>
      <glyph unicode="W" glyph-name="gid55" horiz-adv-x="983" d="M198,0L16,700H173L306,129H267L409,700H573L717,129H677L810,700H967L786,0H622L473,567h36L362,0H198Z"/>
      <glyph unicode="X" glyph-name="gid56" horiz-adv-x="642" d="M478,0L7,700H166L636,0H478ZM6,0L475,700H634L164,0H6Z"/>
      <glyph unicode="Y" glyph-name="gid57" horiz-adv-x="645" d="M250,0l3,289L0,700H161L323,411L487,700H645L394,289L397,0H250Z"/>
      <glyph unicode="Z" glyph-name="gid59" horiz-adv-x="549" d="M30,1V123L350,574H30V700H517V578L199,127H517V1H30Z"/>
      <glyph unicode="[" glyph-name="gid162" horiz-adv-x="439" d="M90-158V775H407V649H230V-32H406V-158H90Z"/>
      <glyph unicode="\" glyph-name="gid151" horiz-adv-x="482" d="M334-161L-20,775H120L474-161H334Z"/>
      <glyph unicode="]" glyph-name="gid163" horiz-adv-x="439" d="M408-158H92V-32H268V649H91V775H408V-158Z"/>
      <glyph unicode="^" glyph-name="gid199" horiz-adv-x="555" d="M505,406H369L252,624h50L187,407H50L236,700h83L505,406Z"/>
      <glyph unicode="_" glyph-name="gid157" horiz-adv-x="529" d="M-3,0V116H532V0H-3Z"/>
      <glyph unicode="`" glyph-name="gid216" horiz-adv-x="244" d="M131,559L10,729H164l70-170H131Z"/>
      <glyph unicode="a" glyph-name="gid60" horiz-adv-x="610" d="M252-12q-68,0-116,32T63,111.5T38,253q0,84 27.5,143.5t77,91.5T257,520q42,0 73-15t52-38.5T416,415v93H556L555,0H416V83q-13-27-34.5-48.5t-53-34T252-12ZM302,96q34,1 59.5,20t40,54.5T416,253q0,44-14.5,79.5t-40,56.5T302,410q-36,0-62.5-21t-41-56.5T184,253q0-48 14.5-83.5t41-54.5T302,96Z"/>
      <glyph unicode="b" glyph-name="gid68" horiz-adv-x="633" d="M221,425q13,27 35.5,48.5t55,34T385,520q66,0 114-32t74-91t26-142q0-84-27.5-143.5T495,20T380-12q-39,0-70,15T256.5,42T221,93V0H80l1,700H221V425Zm114-13q-34,0-59.5-19.5t-40-54.5T221,255q0-44 14.5-79.5t40-56.5T335,98q36,0 62.5,21t41,57T453,255q0,48-14.5,83.5t-41,55T335,412Z"/>
      <glyph unicode="c" glyph-name="gid69" horiz-adv-x="550" d="M518,381L402,335q-9,24-34,44.5T308,400q-54,0-86-38T190,255t32-108t86-39q35,0 60,20.5T402,173l116-46Q489,58 434,23T313-12q-81,0-141.5,32t-94,91.5T44,254T77.5,396.5t94,91.5T313,520q66,0 121-35t84-104Z"/>
      <glyph unicode="d" glyph-name="gid71" horiz-adv-x="660" d="M424,101q-14-34-36.5-59.5T332.5,2T256-12q-65,0-113.5,32T68,111.5T42,253q0,84 27.5,143.5t77,91.5T261,520q42,0 72.5-15t52-38.5T420,415V700H560l-1-532q0-30 13-41t50-3V14Q612,8 589.5,3.5T547-1Q524-1 495,9.5T445,43t-21,58ZM307,96q34,1 59.5,20t40,54.5T421,253q0,44-14.5,79.5t-40,56.5T307,410q-36,0-62.5-21t-41-56.5T189,253q0-48 14.5-83.5t41-54.5T307,96Z"/>
      <glyph unicode="e" glyph-name="gid73" horiz-adv-x="591" d="M301-13q-67,0-127.5,31t-98,91T38,256q0,68 22,117.5t59.5,82t84,48.5T299,520q75,0 130.5-32.5t86-93.5T546,248V215H143l-1,86H403q0,13-7,30t-20.5,32.5t-33,26T298,400q-42,0-69-19t-40.5-51.5T175,256q0-46 13.5-79.5t42-51.5T303,107q15,0 34,7.5T373,137t26,36l132-39q-23-55-60.5-87.5T389,0.5T301-13Z"/>
      <glyph unicode="f" glyph-name="gid78" horiz-adv-x="400" d="M132,0V388H32V508H132l1,68q1,55 24.5,86.5t60,44.5T296,720q26,0 50-2t37-6l-1-112q-12,2-24,3t-22,1q-37,0-50.5-18.5T272,539V508H388V388H272V0H132Z"/>
      <glyph unicode="g" glyph-name="gid79" horiz-adv-x="632" d="M425,0V79q-12-27-33.5-47.5t-53-32T265-12q-65,0-114,32T75,111.5T48,253q0,84 28,143.5T154.5,488T270,520q42,0 72.5-14T394,469.5T428,419v89H562L561,0q0-71-31.5-124.5t-92.5-83T285-237q-60,0-110,17.5t-85,48T38-102L146-29q11-23 31.5-45t49-35.5T288-123q64,0 100.5,31.5T425,0ZM312,96q34,1 59.5,20t40,54.5T426,253q0,44-14.5,79.5t-40,56.5T312,410q-36,0-62.5-21t-41-56.5T194,253q0-48 14.5-83.5t41-54.5T312,96Z"/>
      <glyph unicode="h" glyph-name="gid80" horiz-adv-x="624" d="M80,0V700H220V430q8,18 22,34.5t32.5,29T316,513t48,7q67,0 109.5-26T536,421.5T556,315V0H416V296q0,56-21,84t-64,28q-41,0-65.5-19.5t-35-57.5T220,239V0H80Z"/>
      <glyph unicode="i" glyph-name="gid81" horiz-adv-x="268" d="M134,559q-34,0-59,25.5T50,644q0,35 25,60t59,25q36,0 60-25t24-60q0-34-24-59.5T134,559ZM64,0V508H204V0H64Z"/>
      <glyph unicode="j" glyph-name="gid88" horiz-adv-x="284" d="M31-230q-12,0-35,2t-36,6l1,136q12-2 31.5-3T22-90q27,0 42.5,17T80-28V508H220L219-76q0-70-46-112T31-230ZM150,559q-34,0-59,25.5T66,644q0,35 25,60t59,25q36,0 60-25t24-60q0-34-24-59.5T150,559Z"/>
      <glyph unicode="k" glyph-name="gid91" horiz-adv-x="588" d="M177,116l-75,94L392,508H570L335,251l-24-10L177,116ZM80-1V711l140,1V0L80-1ZM420,0L245,280l122,71L588,0H420Z"/>
      <glyph unicode="l" glyph-name="gid92" horiz-adv-x="296" d="M78,0V700H218V0H78Z"/>
      <glyph unicode="m" glyph-name="gid93" horiz-adv-x="974" d="M80,0V508H220V430q8,18 22.5,34.5t34.5,29T320.5,513t48.5,7q65,0 107.5-26T540,421.5T561,315V0H421V296q0,58-21.5,85T335,408q-41,0-66.5-19.5t-37-57.5T220,239V0H80ZM762,0V296q0,58-21.5,85T676,408q-41,0-66.5-19.5t-37-57.5T561,239L545,410q11,32 28.5,53.5t40.5,34T661.5,515t48.5,5q65,0 107.5-26T881,421.5T902,315V0H762Z"/>
      <glyph unicode="n" glyph-name="gid94" horiz-adv-x="624" d="M80,0V508H220V430q8,18 22,34.5t32.5,29T316,513t48,7q67,0 109.5-26T536,421.5T556,315V0H416V296q0,56-21,84t-64,28q-41,0-65.5-19.5t-35-57.5T220,239V0H80Z"/>
      <glyph unicode="o" glyph-name="gid96" horiz-adv-x="604" d="M303-12q-69,0-130,28T74,103T36,254q0,70 23,120t62,82.5t86.5,48T303,520q69,0 129.5-28t98-86.5T568,254q0-69-22.5-119T485,52T399.5,3.5T303-12Zm0,120q61,0 90,39.5T422,254q0,66-28.5,106T303,400q-58,0-89.5-40T182,254q0-67 31.5-106.5T303,108Z"/>
      <glyph unicode="p" glyph-name="gid104" horiz-adv-x="613" d="M191,83V-230H51L50,508H191V415q13,28 34,51.5T276,505t69,15q66,0 116.5-32t79-91.5T569,253q0-82-27.5-141.5T465,20T350-12q-41,0-72,12.5t-52.5,34T191,83ZM305,96q36,0 62.5,19t41,54.5T423,253q0,44-14.5,79.5t-41,56.5T305,410q-34,0-59.5-21t-40-56.5T191,253q0-47 14.5-82.5t40-54.5T305,96Z"/>
      <glyph unicode="q" glyph-name="gid106" horiz-adv-x="655" d="M544-229q-37,0-65,13.5t-43,42T421-100l1,183q-13-27-34.5-48.5t-52-34T263-12q-65,0-114.5,32t-77,91.5T44,253q0,84 28.5,143.5T152,488t116,32q39,0 69-15t51-38.5T422,415v93H563L562-60q0-30 13-41t50-3V-214q-10-6-35.5-10.5T544-229ZM308,96q34,1 59.5,20t40,54.5T422,253q0,44-14.5,79.5t-40,56.5T308,410q-36,0-62.5-21t-41-56.5T190,253q0-48 14.5-83.5t41-54.5T308,96Z"/>
      <glyph unicode="r" glyph-name="gid107" horiz-adv-x="419" d="M80,0V508H220V424q8,20 20.5,37.5T271,492t40,20.5t47,7.5q8,0 22-1t21-3V385q-15,5-38,7.5T321,391q-39-8-61-30t-31-57t-9-83V0H80Z"/>
      <glyph unicode="s" glyph-name="gid108" horiz-adv-x="554" d="M275-12q-79,0-132,26.5T63,84T36,176l136-1q0-24 14-40.5T224.5,110t57.5-8q43,0 68,12t25,41q0,17-23,25.5T292.5,194t-77,12.5t-77,23.5T79,276T56,355q0,46 21.5,83.5T147,498t125,22q65,0 108.5-16t70-41.5t38-55T500,351H364q0,22-25,38.5T271,406q-41,0-58.5-12T195,361q0-16 17.5-25T258,321.5T320.5,310T389,294.5t62-25T496.5,228T514,162q0-54-27.5-93t-81-60T275-12Z"/>
      <glyph unicode="t" glyph-name="gid110" horiz-adv-x="400" d="M301-12q-98,0-142.5,40.5T114,149V387H18V508H37q32,0 50,7t25.5,23.5T120,582v45H254V507H370V387H254V184q0-35 18-48.5T310,122q10,0 25,1t27,3L363-4q-13-4-31.5-6T301-12Z"/>
      <glyph unicode="u" glyph-name="gid111" horiz-adv-x="616" d="M536,508V0H396V78q-8-18-22-34.5t-32.5-29T300.5-5T252-12q-67,0-109.5,26.5T80,87T60,193V508H200V212q0-55 21-83.5T285,100q42,0 66,20t34.5,57.5T396,269V508H536Z"/>
      <glyph unicode="v" glyph-name="gid116" horiz-adv-x="544" d="M3,508H147L329,0H204L3,508Zm538,0L338,0H219L407,508H541Z"/>
      <glyph unicode="w" glyph-name="gid117" horiz-adv-x="918" d="M207,0L32,508H178L295,95H271L391,508H537L650,95H626L750,508H886L709,0H572L445,408h29L344,0H207Z"/>
      <glyph unicode="x" glyph-name="gid118" horiz-adv-x="555" d="M395,0L237,212l-9,6L12,508H166L310,313l10-7L549,0H395ZM6,0L233,304l9,6L389,508H538L323,220l-9-7L155,0H6Z"/>
      <glyph unicode="y" glyph-name="gid119" horiz-adv-x="543" d="M132-230q-30,0-53,3.5T46-220l1,120q9-2 25.5-3T96-104q23,0 46,10t42,33.5T212,3L4,508H144L285,141L400,508H541L340-34q-26-71-57.5-114.5T214-211t-82-19Z"/>
      <glyph unicode="z" glyph-name="gid122" horiz-adv-x="516" d="M40,1l1,113L287,388H41L40,508H470l1-112L225,121H472V1H40Z"/>
      <glyph unicode="{" glyph-name="gid160" horiz-adv-x="442" d="M280-159q-41,0-75,21.5T151.5-81T132-6V168q0,41-18.5,59.5T56,246V376q39,0 57.5,19T132,455V622q0,41 19.5,75.5t53.5,56T280,775H420V649H326q-26,0-40-17.5T272,576V414q0-45-21-69t-56-32v-8q35-7 56-29.5T272,209V40q0-30 14-51.5T326-33h94V-159H280Z"/>
      <glyph unicode="|" glyph-name="gid184" horiz-adv-x="330" d="M100-159V775H230V-159H100Z"/>
      <glyph unicode="}" glyph-name="gid161" horiz-adv-x="442" d="M162-159H22V-33h94q26,0 40,21.5T170,40V209q0,44 21.5,66.5T247,305v8q-34,8-55.5,32T170,414V576q0,38-14,55.5T116,649H22V775H162q42,0 75.5-21.5t53-56T310,622V455q0-41 18.5-60T386,376V246q-39,0-57.5-18.5T310,168V-6q0-40-19.5-75t-53-56.5T162-159Z"/>
      <glyph unicode="~" glyph-name="gid198" horiz-adv-x="667" d="M430,195q-31,0-58,10.5t-50.5,24t-43,24T242,264q-30,0-48-11.5t-28-25T150,206L68,283q9,16 30,42.5T154.5,373T243,394q27,0 52-10.5t48-24t43-24T423,325q30,0 48,11.5t28,26T514,385l85-82q-9-16-32-41.5t-58-46T430,195Z"/>
      <glyph unicode="&#xa0;" glyph-name="gid136" horiz-adv-x="300"/>
      <glyph unicode="&#xa1;" glyph-name="gid143" horiz-adv-x="361" d="M120,277H242l14-469H105l15,469Zm61,243q35,0 60.5-25.5T267,433q0-35-25.5-60T181,348q-36,0-61.5,25T94,433q0,36 25.5,61.5T181,520Z"/>
      <glyph unicode="&#xa2;" glyph-name="gid185" horiz-adv-x="582" d="M323,87q-81,0-141.5,32t-94,91.5T54,353T87.5,495.5t94,91.5T323,619q66,0 121-35t84-104L412,434q-9,24-34,44.5T318,499q-36,0-62.5-17t-41-49.5T200,354t14.5-79t41-50.5T318,207q35,0 60,20.5T412,272l116-46q-29-69-84-104T323,87ZM234,1V700H374V1H234Z"/>
      <glyph unicode="&#xa3;" glyph-name="gid188" horiz-adv-x="533" d="M37,0V126q27,20 50,43t37,56.5T138,307q0,35-13,58T95,409T65,457.5T52,528q0,61 30,101.5T165,691t122,21q56,0 110-25t81-72q8-13 13-34.5t8-45t3-41.5H372q0,26-8,45.5t-26.5,31T288,582q-29,0-46-9.5T217.5,550T208,526t-2-13q0-28 13-49t30-42.5t30-51T292,296q0-37-8.5-66T263,180t-25-34.5T216,126H515V0H37ZM34,254V364H424V254H34Z"/>
      <glyph unicode="&#xa5;" glyph-name="gid189" horiz-adv-x="625" d="M240,0l3,289L0,700H161L313,411L467,700H625L384,289L387,0H240ZM73,109V219H553V109H73Zm0,165V384H553V274H73Z"/>
      <glyph unicode="&#xa7;" glyph-name="gid179" horiz-adv-x="630" d="M485,72L357,124q0,0 14,4t32.5,14T436,169t14,43q0,27-21.5,47t-57,35.5t-78.5,30T207.5,355t-78,37.5t-57,51T51,514q0,69 32.5,113T175,692t138,21q73,0 123.5-20t83-54T569,563.5T591,479H435q-10,56-45,80t-77,24q-30,0-54.5-6.5t-39-20.5T205,519q0-19 21-32t56-23t76-21.5T440.5,415T517,374t56-62t21-91q0-37-18-67.5T533,102T485,72ZM315-230q-73,0-123.5,20t-83,54T59-80.5T37,4H193q11-56 45.5-80T315-100q31,0 55,4.5T408.5-78T423-41q0,18-21,30.5T346.5,13T271,36.5t-82.5,30t-76,43T57,172T36,261q0,38 17.5,68.5T96,381t47,30l128-52q0,0-13.5-4t-32-13.5t-32-27T180,270q0-26 21.5-45t57-34.5t78-30.5T421,128.5t77.5-38t57-50.5T577-29q0-68-32.5-113t-91-66.5T315-230Z"/>
      <glyph unicode="&#xa8;" glyph-name="gid215" horiz-adv-x="332" d="M280,559q-34,0-59,25.5T196,644q0,35 25,60t59,25q36,0 60-25t24-60q0-34-24-59.5T280,559ZM53,559q-34,0-59,25.5T-31,644q0,35 25,60t59,25q36,0 60-25t24-60q0-34-24-59.5T53,559Z"/>
      <glyph unicode="&#xa9;" glyph-name="gid180" horiz-adv-x="859" d="M430-12q-91,0-160,30.5t-116,82t-70.5,117T60,354q0,72 23.5,137.5T154,609t116,81.5T430,720q90,0 159-30.5t116-82t70.5-117T799,353q0-71-23.5-136.5T705,99.5T589,18T430-12Zm0,120q73,0 128.5,31.5t86.5,87T676,353q0,70-31,125.5T559,567T430,600q-74,1-129.5-32T214,479.5T183,354q0-71 33-126.5t89.5-87T430,108Zm10,67q-52,0-91.5,21t-62,61T264,352q0,57 23,97.5T349.5,511T440,532q49,0 89-27t57-72l-87-41q-10,21-26,28.5T439,428q-32,0-48.5-22T374,355q0-32 16.5-54T439,279q19,0 35.5,8T499,314l88-40q-17-45-58-72t-89-27Z"/>
      <glyph unicode="&#xaa;" glyph-name="gid123" horiz-adv-x="429" d="M148,349q-59,0-87.5,30T32,456q0,41 24,68.5t74,41T257,578v3q0,16-18,28t-48,12q-31,0-55-13t-33-28L39,637q28,41 69,58t88,17q74,0 116.5-33T355,589V472q0-20 9.5-28t34.5-2V367q-7-4-24.5-7T342,357q-39,0-62,16.5T257,420q0,0-5.5-10.5t-17.5-25t-33-25T148,349ZM399,198H30V308H399V198ZM195,439q17,0 31,8t22,21.5t8,28.5v4q-44,0-69-4.5t-35-12T142,467q0-14 13.5-21t39.5-7Z"/>
      <glyph unicode="&#xab;" glyph-name="gid170" horiz-adv-x="715" d="M674,3L347,222V352L674,571V432L388,240v97L674,145V3ZM372,3L45,222V352L372,571V432L86,240v97L372,145V3Z"/>
      <glyph unicode="&#xae;" glyph-name="gid181" horiz-adv-x="472" d="M236,262q-70,0-119.5,34T41,382.5T15,490q0,61 26,111.5T116.5,682T236,712t119.5-31.5T431,598t26-108q0-59-26-111.5T355.5,294T236,262Zm0,63q45,0 80,20t55,57.5T391,490q0,46-20,82t-55,57t-80,21q-44,0-79.5-21T101,572T81,490q0-50 20-87.5T156.5,345T236,325ZM224,462l54,4l59-92H278l-54,88Zm-70-88V606h92q32,0 54.5-18.5T323,531q0-34-19.5-56.5T248,452H208V374H154Zm54,129h32q15,0 23,7t7,20q-1,10-8.5,17.5T240,555H207l1-52Z"/>
      <glyph unicode="&#xaf;" glyph-name="gid221" horiz-adv-x="346" d="M10,579v92H336V579H10Z"/>
      <glyph unicode="&#xb0;" glyph-name="gid183" horiz-adv-x="373" d="M186,419q-46,0-78.5,21.5T58,496.5T41,569q0,40 17,74.5T107.5,699T186,720q47,0 79.5-21T315,643.5T332,569q0-38-17-72.5t-49.5-56T186,419Zm0,85q28,0 46,18.5T250,569t-18,46.5T186,634q-27,0-45-18.5T123,569t18-46.5T186,504Z"/>
      <glyph unicode="&#xb1;" glyph-name="gid197" horiz-adv-x="615" d="M240,194V625H375V194H240ZM68,347V473H547V347H68ZM68,0V126H547V0H68Z"/>
      <glyph unicode="&#xb4;" glyph-name="gid217" horiz-adv-x="244" d="M113,559H10L80,729H234L113,559Z"/>
      <glyph unicode="&#xb6;" glyph-name="gid178" horiz-adv-x="807" d="M219,0V352q-41,0-79,21.5T78,434T54,526q0,51 24,90.5T140,678t79,22H747V574H628V126H747V0H219ZM365,124H482V574H365V124Z"/>
      <glyph unicode="&#xb7;" glyph-name="gid146" horiz-adv-x="333" d="M167,217q-37,0-63.5,26.5T77,307q0,36 26.5,61.5T167,394q36,0 62.5-25.5T256,307q0-37-26.5-63.5T167,217Z"/>
      <glyph unicode="&#xb8;" glyph-name="gid222" horiz-adv-x="262" d="M132-239q-38,0-75,15.5T3-184l47,61q8-8 29-22.5T126-160q14,0 24.5,7.5T161-132q0,12-10,20t-25,8q-16,0-25-5.5T87-118L32-74L78,13h86L138-37q32,6 59.5-5T242-77.5T259-135q0-46-34-75t-93-29Z"/>
      <glyph unicode="&#xba;" glyph-name="gid124" horiz-adv-x="403" d="M25,308H378V198H25V308Zm177,41q-46,0-88,19T46,427.5T20,530q0,64 27,104t69,59t86,19q47,0 88.5-19t67-59T383,530q0-62-26.5-102.5t-68-59.5T202,349Zm0,107q32,0 46,20t14,54t-14,54.5T202,605q-29,0-45-20.5T141,530t15.5-54T202,456Z"/>
      <glyph unicode="&#xbb;" glyph-name="gid171" horiz-adv-x="715" d="M347,3V145L633,337V240L347,432V571L674,352V222L347,3ZM45,3V145L331,337V240L45,432V571L372,352V222L45,3Z"/>
      <glyph unicode="&#xbf;" glyph-name="gid145" horiz-adv-x="528" d="M264-216q-66,0-116,22.5t-78,65T42-27q0,52 12.5,86t32,57t41,40.5t41,35.5t32,42T213,295H365q0-54-12-89.5t-31.5-58t-41-39t-41-33T208,36T196-23q0-25 17-44t52-19q27,0 42.5,10.5t22,29.5T336-4H488q0-27-6.5-61.5T464-120q-27-46-77-71T264-216Zm23,564q-35,0-60.5,25T201,433q0,36 25.5,61.5T287,520q36,0 61.5-25.5T374,433q0-35-25.5-60T287,348Z"/>
      <glyph unicode="&#xc0;" glyph-name="gid6" horiz-adv-x="669" d="M5,0L250,700H400L163,0H5ZM179,161V287H501V161H179ZM512,0L282,700H420L664,0H512ZM283,763L162,933H316l70-170H283Z"/>
      <glyph unicode="&#xc1;" glyph-name="gid2" horiz-adv-x="669" d="M5,0L250,700H400L163,0H5ZM179,161V287H501V161H179ZM512,0L282,700H420L664,0H512ZM391,763H288l70,170H512L391,763Z"/>
      <glyph unicode="&#xc2;" glyph-name="gid4" horiz-adv-x="669" d="M5,0L250,700H400L163,0H5ZM179,161V287H501V161H179ZM512,0L282,700H420L664,0H512ZM165,763L287,933h97L507,763H386L302,894h69L285,763H165Z"/>
      <glyph unicode="&#xc3;" glyph-name="gid8" horiz-adv-x="669" d="M5,0L250,700H400L163,0H5ZM179,161V287H501V161H179ZM512,0L282,700H420L664,0H512ZM275,824q-22,0-30-16.5T237,763H138q0,76 29,117t93,41q34,0 58.5-13.5T362,880t34-14q18,0 28,12t10,40h99q0-71-28.5-114.5T411,760q-26,0-46,9.5T329,792t-29,22.5T275,824Z"/>
      <glyph unicode="&#xc4;" glyph-name="gid5" horiz-adv-x="669" d="M5,0L250,700H400L163,0H5ZM179,161V287H501V161H179ZM512,0L282,700H420L664,0H512ZM455,763q-34,0-59,25.5T371,848q0,35 25,60t59,25q36,0 60-25t24-60q0-34-24-59.5T455,763Zm-227,0q-34,0-59,25.5T144,848q0,35 25,60t59,25q36,0 60-25t24-60q0-34-24-59.5T228,763Z"/>
      <glyph unicode="&#xc5;" glyph-name="gid7" horiz-adv-x="669" d="M5,0L250,700H400L163,0H5ZM179,161V287H501V161H179ZM512,0L282,700H420L664,0H512ZM342,760q-39,0-67.5,18.5t-44,48.5T215,890q0,34 15.5,63t44,47t67.5,18q40,0 68.5-18t44-47T470,890q0-33-15.5-63t-44-48.5T342,760Zm0,84q18,0 31.5,12.5T387,890q0,18-13.5,31T342,934q-17,0-30.5-13T298,890q0-21 13.5-33.5T342,844Z"/>
      <glyph unicode="&#xc6;" glyph-name="gid9" horiz-adv-x="967" d="M5,0L384,700H534L163,0H5ZM183,142V268H474V142H183ZM468,0V700H925V574H614V423H874V297H614V126H925V0H468Z"/>
      <glyph unicode="&#xc7;" glyph-name="gid12" horiz-adv-x="684" d="M383-12q-92,0-155.5,31T125,102.5t-56.5,118T51,355q0,73 20,137.5t61,114t103,78T381,713q65,0 121-27t95.5-74.5T651,502L510,474q-7,29-27,54t-47,40t-57,15q-60,0-98.5-27t-57-77.5T205,357q0-79 19.5-132t59-79.5T383,119q28,0 54.5,13.5t46,37.5T510,227l141-28q-14-61-48-109T514,15T383-12Zm-1-238q-38,0-75,15.5T253-195l47,61q8-8 29-22.5T376-171q14,0 24.5,7.5T411-143q0,12-10,20t-25,8q-16,0-25-5.5T337-129L282-85L328,2h86L388-48q32,6 59.5-5T492-88.5T509-146q0-46-34-75t-93-29Z"/>
      <glyph unicode="&#xc8;" glyph-name="gid19" horiz-adv-x="589" d="M90,0V700H547V574H236V423H496V297H236V126H547V0H90ZM266,751L145,921H299l70-170H266Z"/>
      <glyph unicode="&#xc9;" glyph-name="gid16" horiz-adv-x="589" d="M90,0V700H547V574H236V423H496V297H236V126H547V0H90ZM374,751H271l70,170H495L374,751Z"/>
      <glyph unicode="&#xca;" glyph-name="gid17" horiz-adv-x="589" d="M90,0V700H547V574H236V423H496V297H236V126H547V0H90Zm58,751L270,921h97L490,751H369L285,882h69L268,751H148Z"/>
      <glyph unicode="&#xcb;" glyph-name="gid18" horiz-adv-x="589" d="M90,0V700H547V574H236V423H496V297H236V126H547V0H90ZM438,751q-34,0-59,25.5T354,836q0,35 25,60t59,25q36,0 60-25t24-60q0-34-24-59.5T438,751Zm-227,0q-34,0-59,25.5T127,836q0,35 25,60t59,25q36,0 60-25t24-60q0-34-24-59.5T211,751Z"/>
      <glyph unicode="&#xcc;" glyph-name="gid27" horiz-adv-x="533" d="M80,0V122H194V578H80V700H453V578H340V122H453V0H80ZM214,751L93,921H247l70-170H214Z"/>
      <glyph unicode="&#xcd;" glyph-name="gid24" horiz-adv-x="533" d="M80,0V122H194V578H80V700H453V578H340V122H453V0H80ZM322,751H219l70,170H443L322,751Z"/>
      <glyph unicode="&#xce;" glyph-name="gid25" horiz-adv-x="533" d="M80,0V122H194V578H80V700H453V578H340V122H453V0H80ZM96,751L218,921h97L438,751H317L233,882h69L216,751H96Z"/>
      <glyph unicode="&#xcf;" glyph-name="gid26" horiz-adv-x="533" d="M80,0V122H194V578H80V700H453V578H340V122H453V0H80ZM386,751q-34,0-59,25.5T302,836q0,35 25,60t59,25q36,0 60-25t24-60q0-34-24-59.5T386,751Zm-227,0q-34,0-59,25.5T75,836q0,35 25,60t59,25q36,0 60-25t24-60q0-34-24-59.5T159,751Z"/>
      <glyph unicode="&#xd0;" glyph-name="gid14" horiz-adv-x="723" d="M0,291V401H383V291H0ZM90,0V700H338q115,0 189.5-44t111-122.5T675,349q0-104-36.5-182.5T527.5,44T338,0H90ZM236,126H341q59,0 99,23t60.5,72.5T521,350T500.5,478T440,550.5T341,574H236V126Z"/>
      <glyph unicode="&#xd1;" glyph-name="gid34" horiz-adv-x="732" d="M84,0V700H240L535,204H503V700H649V0H505L198,504h32V0H84ZM309,812q-22,0-30-16.5T271,751H172q0,76 29,117t93,41q34,0 58.5-13.5T396,868t34-14q18,0 28,12t10,40h99q0-71-28.5-114.5T445,748q-26,0-46,9.5T363,780t-29,22.5T309,812Z"/>
      <glyph unicode="&#xd2;" glyph-name="gid39" horiz-adv-x="758" d="M380-11q-84,0-146.5,27.5T130,93.5T68.5,209T48,351T68.5,493T130,608.5t103.5,77T380,713t146-27.5t103-77T690,493t20-142T690,209T629,93.5t-103-77T380-11Zm0,126q61,0 100,26.5T537.5,221T556,351q0,78-18.5,130.5t-57.5,79T380,587q-57,0-97-26.5t-60.5-79T202,351q0-77 20.5-130T283,141.5T380,115ZM327,764L206,934H360l70-170H327Z"/>
      <glyph unicode="&#xd3;" glyph-name="gid36" horiz-adv-x="758" d="M380-11q-84,0-146.5,27.5T130,93.5T68.5,209T48,351T68.5,493T130,608.5t103.5,77T380,713t146-27.5t103-77T690,493t20-142T690,209T629,93.5t-103-77T380-11Zm0,126q61,0 100,26.5T537.5,221T556,351q0,78-18.5,130.5t-57.5,79T380,587q-57,0-97-26.5t-60.5-79T202,351q0-77 20.5-130T283,141.5T380,115Zm55,649H332l70,170H556L435,764Z"/>
      <glyph unicode="&#xd4;" glyph-name="gid37" horiz-adv-x="758" d="M380-11q-84,0-146.5,27.5T130,93.5T68.5,209T48,351T68.5,493T130,608.5t103.5,77T380,713t146-27.5t103-77T690,493t20-142T690,209T629,93.5t-103-77T380-11Zm0,126q61,0 100,26.5T537.5,221T556,351q0,78-18.5,130.5t-57.5,79T380,587q-57,0-97-26.5t-60.5-79T202,351q0-77 20.5-130T283,141.5T380,115ZM209,764L331,934h97L551,764H430L346,895h69L329,764H209Z"/>
      <glyph unicode="&#xd5;" glyph-name="gid41" horiz-adv-x="758" d="M380-11q-84,0-146.5,27.5T130,93.5T68.5,209T48,351T68.5,493T130,608.5t103.5,77T380,713t146-27.5t103-77T690,493t20-142T690,209T629,93.5t-103-77T380-11Zm0,126q61,0 100,26.5T537.5,221T556,351q0,78-18.5,130.5t-57.5,79T380,587q-57,0-97-26.5t-60.5-79T202,351q0-77 20.5-130T283,141.5T380,115ZM319,825q-22,0-30-16.5T281,764H182q0,76 29,117t93,41q34,0 58.5-13.5T406,881t34-14q18,0 28,12t10,40h99q0-71-28.5-114.5T455,761q-26,0-46,9.5T373,793t-29,22.5T319,825Z"/>
      <glyph unicode="&#xd6;" glyph-name="gid38" horiz-adv-x="758" d="M380-11q-84,0-146.5,27.5T130,93.5T68.5,209T48,351T68.5,493T130,608.5t103.5,77T380,713t146-27.5t103-77T690,493t20-142T690,209T629,93.5t-103-77T380-11Zm0,126q61,0 100,26.5T537.5,221T556,351q0,78-18.5,130.5t-57.5,79T380,587q-57,0-97-26.5t-60.5-79T202,351q0-77 20.5-130T283,141.5T380,115ZM499,764q-34,0-59,25.5T415,849q0,35 25,60t59,25q36,0 60-25t24-60q0-34-24-59.5T499,764Zm-227,0q-34,0-59,25.5T188,849q0,35 25,60t59,25q36,0 60-25t24-60q0-34-24-59.5T272,764Z"/>
      <glyph unicode="&#xd7;" glyph-name="gid192" horiz-adv-x="582" d="M68,442l75,75L514,146L439,71L68,442Zm446,0L143,71L68,146L439,517l75-75Z"/>
      <glyph unicode="&#xd8;" glyph-name="gid40" horiz-adv-x="874" d="M48,85L733,712l93-93L137-12L48,85ZM444-11q-84,0-146.5,27.5T194,93.5T132.5,209T112,351t20.5,142T194,608.5t103.5,77T444,713t146-27.5t103-77T754,493t20-142T754,209T693,93.5t-103-77T444-11Zm0,126q61,0 100,26.5T601.5,221T620,351q0,78-18.5,130.5t-57.5,79T444,587q-57,0-97-26.5t-60.5-79T266,351q0-77 20.5-130T347,141.5T444,115Z"/>
      <glyph unicode="&#xd9;" glyph-name="gid53" horiz-adv-x="694" d="M351-12q-86,0-150,35t-98.5,99.5T68,275V701H214V275q0-68 32.5-112.5T347,118q44,0 73.5,20.5t44.5,56T480,275V701H626V275q0-133-71.5-210T351-12ZM298,751L177,921H331l70-170H298Z"/>
      <glyph unicode="&#xda;" glyph-name="gid50" horiz-adv-x="694" d="M351-12q-86,0-150,35t-98.5,99.5T68,275V701H214V275q0-68 32.5-112.5T347,118q44,0 73.5,20.5t44.5,56T480,275V701H626V275q0-133-71.5-210T351-12Zm55,763H303l70,170H527L406,751Z"/>
      <glyph unicode="&#xdb;" glyph-name="gid51" horiz-adv-x="694" d="M351-12q-86,0-150,35t-98.5,99.5T68,275V701H214V275q0-68 32.5-112.5T347,118q44,0 73.5,20.5t44.5,56T480,275V701H626V275q0-133-71.5-210T351-12ZM180,751L302,921h97L522,751H401L317,882h69L300,751H180Z"/>
      <glyph unicode="&#xdc;" glyph-name="gid52" horiz-adv-x="694" d="M351-12q-86,0-150,35t-98.5,99.5T68,275V701H214V275q0-68 32.5-112.5T347,118q44,0 73.5,20.5t44.5,56T480,275V701H626V275q0-133-71.5-210T351-12ZM470,751q-34,0-59,25.5T386,836q0,35 25,60t59,25q36,0 60-25t24-60q0-34-24-59.5T470,751Zm-227,0q-34,0-59,25.5T159,836q0,35 25,60t59,25q36,0 60-25t24-60q0-34-24-59.5T243,751Z"/>
      <glyph unicode="&#xdd;" glyph-name="gid58" horiz-adv-x="645" d="M250,0l3,289L0,700H161L323,411L487,700H645L394,289L397,0H250ZM378,751H275l70,170H499L378,751Z"/>
      <glyph unicode="&#xde;" glyph-name="gid44" horiz-adv-x="638" d="M90-1V592H390q67,0 118-29t80.5-82T618,356q0-64-27.5-117.5t-79-85T388,122H238V-1H90ZM236,248H365q48,0 73.5,33.5T464,358q0,45-26,76.5T365,466H236V248ZM90,700H238V462H90V700Z"/>
      <glyph unicode="&#xdf;" glyph-name="gid109" horiz-adv-x="673" d="M378,163q0-31 18.5-46T446,102q30,0 45,17.5T506,171q0,30-17,48.5t-42.5,33t-51,31.5T353,326t-17,66q0,25 5.5,41t13,29.5t13,30.5t5.5,44q0,17-9.5,30.5t-25,22T303,598q-43,0-63-34T220,457V0H80V463q0,70 19.5,126t68,89.5T302,712q64,0 111-25t73-65t26-85q0-28-5.5-47.5t-12.5-34T481.5,426T476,392q0-18 17-30.5t41.5-26T584,302t42-51.5T643,170q0-51-21.5-92t-65-65.5T445-12Q388-12 343,6.5T272.5,64T247,163H378Z"/>
      <glyph unicode="&#xe0;" glyph-name="gid64" horiz-adv-x="610" d="M252-12q-68,0-116,32T63,111.5T38,253q0,84 27.5,143.5t77,91.5T257,520q42,0 73-15t52-38.5T416,415v93H556L555,0H416V83q-13-27-34.5-48.5t-53-34T252-12ZM302,96q34,1 59.5,20t40,54.5T416,253q0,44-14.5,79.5t-40,56.5T302,410q-36,0-62.5-21t-41-56.5T184,253q0-48 14.5-83.5t41-54.5T302,96ZM232,571L111,741H265l70-170H232Z"/>
      <glyph unicode="&#xe1;" glyph-name="gid61" horiz-adv-x="610" d="M252-12q-68,0-116,32T63,111.5T38,253q0,84 27.5,143.5t77,91.5T257,520q42,0 73-15t52-38.5T416,415v93H556L555,0H416V83q-13-27-34.5-48.5t-53-34T252-12ZM302,96q34,1 59.5,20t40,54.5T416,253q0,44-14.5,79.5t-40,56.5T302,410q-36,0-62.5-21t-41-56.5T184,253q0-48 14.5-83.5t41-54.5T302,96Zm38,475H237l70,170H461L340,571Z"/>
      <glyph unicode="&#xe2;" glyph-name="gid62" horiz-adv-x="610" d="M252-12q-68,0-116,32T63,111.5T38,253q0,84 27.5,143.5t77,91.5T257,520q42,0 73-15t52-38.5T416,415v93H556L555,0H416V83q-13-27-34.5-48.5t-53-34T252-12ZM302,96q34,1 59.5,20t40,54.5T416,253q0,44-14.5,79.5t-40,56.5T302,410q-36,0-62.5-21t-41-56.5T184,253q0-48 14.5-83.5t41-54.5T302,96ZM114,571L236,741h97L456,571H335L251,702h69L234,571H114Z"/>
      <glyph unicode="&#xe3;" glyph-name="gid66" horiz-adv-x="610" d="M252-12q-68,0-116,32T63,111.5T38,253q0,84 27.5,143.5t77,91.5T257,520q42,0 73-15t52-38.5T416,415v93H556L555,0H416V83q-13-27-34.5-48.5t-53-34T252-12ZM302,96q34,1 59.5,20t40,54.5T416,253q0,44-14.5,79.5t-40,56.5T302,410q-36,0-62.5-21t-41-56.5T184,253q0-48 14.5-83.5t41-54.5T302,96ZM224,632q-22,0-30-16.5T186,571H87q0,76 29,117t93,41q34,0 58.5-13.5T311,688t34-14q18,0 28,12t10,40h99q0-71-28.5-114.5T360,568q-26,0-46,9.5T278,600t-29,22.5T224,632Z"/>
      <glyph unicode="&#xe4;" glyph-name="gid63" horiz-adv-x="610" d="M252-12q-68,0-116,32T63,111.5T38,253q0,84 27.5,143.5t77,91.5T257,520q42,0 73-15t52-38.5T416,415v93H556L555,0H416V83q-13-27-34.5-48.5t-53-34T252-12ZM302,96q34,1 59.5,20t40,54.5T416,253q0,44-14.5,79.5t-40,56.5T302,410q-36,0-62.5-21t-41-56.5T184,253q0-48 14.5-83.5t41-54.5T302,96ZM404,571q-34,0-59,25.5T320,656q0,35 25,60t59,25q36,0 60-25t24-60q0-34-24-59.5T404,571Zm-227,0q-34,0-59,25.5T93,656q0,35 25,60t59,25q36,0 60-25t24-60q0-34-24-59.5T177,571Z"/>
      <glyph unicode="&#xe5;" glyph-name="gid65" horiz-adv-x="610" d="M252-12q-68,0-116,32T63,111.5T38,253q0,84 27.5,143.5t77,91.5T257,520q42,0 73-15t52-38.5T416,415v93H556L555,0H416V83q-13-27-34.5-48.5t-53-34T252-12ZM302,96q34,1 59.5,20t40,54.5T416,253q0,44-14.5,79.5t-40,56.5T302,410q-36,0-62.5-21t-41-56.5T184,253q0-48 14.5-83.5t41-54.5T302,96ZM291,568q-39,0-67.5,18.5t-44,48.5T164,698q0,34 15.5,63t44,47T291,826q40,0 68.5-18t44-47T419,698q0-33-15.5-63t-44-48.5T291,568Zm0,84q18,0 31.5,12.5T336,698q0,18-13.5,31T291,742q-17,0-30.5-13T247,698q0-21 13.5-33.5T291,652Z"/>
      <glyph unicode="&#xe6;" glyph-name="gid67" horiz-adv-x="935" d="M645-13q-67,0-123,31t-89,91T400,256q0,90 33.5,148.5t89,87T643,520q75,0 130.5-32.5t86-93.5T890,248V225H487l-1,86H747q0,18-12.5,38.5T699,385t-57,15q-42,0-69-19t-40.5-51.5T519,256q0-46 13.5-79.5t42-51.5T647,107q15,0 34,7.5T717,137t26,36l132-39q-23-55-60.5-87.5T733,0.5T645-13ZM227-12q-57,0-99,19.5t-65,55T40,144q0,65 38.5,103t114,54.5T380,318v4q0,26-11.5,46.5t-34.5,32T277,412q-41,0-68.5-19T170,342L65,387q18,54 73.5,93.5T285,520q113,0 158-48.5T488,340V174l-28-1q0,0-2.5-18.5t-13.5-46T408.5,53T340,6.5T227-12ZM248,93q26,0 50,6t42.5,19.5t29,35T380,206v20q-64,0-104-5t-60.5-14.5t-28-23.5T180,151q0-21 12.5-34t29-18.5T248,93Z"/>
      <glyph unicode="&#xe7;" glyph-name="gid70" horiz-adv-x="550" d="M518,381L402,335q-9,24-34,44.5T308,400q-54,0-86-38T190,255t32-108t86-39q35,0 60,20.5T402,173l116-46Q489,58 434,23T313-12q-81,0-141.5,32t-94,91.5T44,254T77.5,396.5t94,91.5T313,520q66,0 121-35t84-104ZM308-250q-38,0-75,15.5T179-195l47,61q8-8 29-22.5T302-171q14,0 24.5,7.5T337-143q0,12-10,20t-25,8q-16,0-25-5.5T263-129L208-85L254,2h86L314-48q32,6 59.5-5T418-88.5T435-146q0-46-34-75t-93-29Z"/>
      <glyph unicode="&#xe8;" glyph-name="gid77" horiz-adv-x="591" d="M301-13q-67,0-127.5,31t-98,91T38,256q0,68 22,117.5t59.5,82t84,48.5T299,520q75,0 130.5-32.5t86-93.5T546,248V215H143l-1,86H403q0,13-7,30t-20.5,32.5t-33,26T298,400q-42,0-69-19t-40.5-51.5T175,256q0-46 13.5-79.5t42-51.5T303,107q15,0 34,7.5T373,137t26,36l132-39q-23-55-60.5-87.5T389,0.5T301-13ZM238,571L117,741H271l70-170H238Z"/>
      <glyph unicode="&#xe9;" glyph-name="gid74" horiz-adv-x="591" d="M301-13q-67,0-127.5,31t-98,91T38,256q0,68 22,117.5t59.5,82t84,48.5T299,520q75,0 130.5-32.5t86-93.5T546,248V215H143l-1,86H403q0,13-7,30t-20.5,32.5t-33,26T298,400q-42,0-69-19t-40.5-51.5T175,256q0-46 13.5-79.5t42-51.5T303,107q15,0 34,7.5T373,137t26,36l132-39q-23-55-60.5-87.5T389,0.5T301-13Zm45,584H243l70,170H467L346,571Z"/>
      <glyph unicode="&#xea;" glyph-name="gid75" horiz-adv-x="591" d="M301-13q-67,0-127.5,31t-98,91T38,256q0,68 22,117.5t59.5,82t84,48.5T299,520q75,0 130.5-32.5t86-93.5T546,248V215H143l-1,86H403q0,13-7,30t-20.5,32.5t-33,26T298,400q-42,0-69-19t-40.5-51.5T175,256q0-46 13.5-79.5t42-51.5T303,107q15,0 34,7.5T373,137t26,36l132-39q-23-55-60.5-87.5T389,0.5T301-13ZM120,571L242,741h97L462,571H341L257,702h69L240,571H120Z"/>
      <glyph unicode="&#xeb;" glyph-name="gid76" horiz-adv-x="591" d="M301-13q-67,0-127.5,31t-98,91T38,256q0,68 22,117.5t59.5,82t84,48.5T299,520q75,0 130.5-32.5t86-93.5T546,248V215H143l-1,86H403q0,13-7,30t-20.5,32.5t-33,26T298,400q-42,0-69-19t-40.5-51.5T175,256q0-46 13.5-79.5t42-51.5T303,107q15,0 34,7.5T373,137t26,36l132-39q-23-55-60.5-87.5T389,0.5T301-13ZM410,571q-34,0-59,25.5T326,656q0,35 25,60t59,25q36,0 60-25t24-60q0-34-24-59.5T410,571Zm-227,0q-34,0-59,25.5T99,656q0,35 25,60t59,25q36,0 60-25t24-60q0-34-24-59.5T183,571Z"/>
      <glyph unicode="&#xec;" glyph-name="gid87" horiz-adv-x="240" d="M50,0V508H190V0H50ZM66,559L-55,729H99l70-170H66Z"/>
      <glyph unicode="&#xed;" glyph-name="gid83" horiz-adv-x="240" d="M50,0V508H190V0H50ZM174,559H71l70,170H295L174,559Z"/>
      <glyph unicode="&#xee;" glyph-name="gid84" horiz-adv-x="240" d="M50,0V508H190V0H50ZM-52,559L70,729h97L290,559H169L85,690h69L68,559H-52Z"/>
      <glyph unicode="&#xef;" glyph-name="gid85" horiz-adv-x="240" d="M50,0V508H190V0H50ZM238,559q-34,0-59,25.5T154,644q0,35 25,60t59,25q36,0 60-25t24-60q0-34-24-59.5T238,559ZM11,559q-34,0-59,25.5T-73,644q0,35 25,60t59,25q36,0 60-25t24-60q0-34-24-59.5T11,559Z"/>
      <glyph unicode="&#xf0;" glyph-name="gid72" horiz-adv-x="584" d="M290-12q-64,0-122.5,29t-95,86T36,243q0,88 34.5,144.5t89,83.5T274,498q44,0 85-20t57-46q-12,44-36.5,78T325,569.5T265,612t-54,26.5T175,651l50,93q96-33 168.5-92.5T507,506t41-199q0-89-31-161.5t-88.5-115T290-12Zm-3,120q58,0 85.5,37T400,243q0,60-27,97.5T287,378q-51,0-80-37.5T178,243q0-61 28.5-98T287,108ZM221,511l-39,72L460,722l40-72L221,511Z"/>
      <glyph unicode="&#xf1;" glyph-name="gid95" horiz-adv-x="624" d="M80,0V508H220V430q8,18 22,34.5t32.5,29T316,513t48,7q67,0 109.5-26T536,421.5T556,315V0H416V296q0,56-21,84t-64,28q-41,0-65.5-19.5t-35-57.5T220,239V0H80ZM270,632q-22,0-30-16.5T232,571H133q0,76 29,117t93,41q34,0 58.5-13.5T357,688t34-14q18,0 28,12t10,40h99q0-71-28.5-114.5T406,568q-26,0-46,9.5T324,600t-29,22.5T270,632Z"/>
      <glyph unicode="&#xf2;" glyph-name="gid100" horiz-adv-x="604" d="M303-12q-69,0-130,28T74,103T36,254q0,70 23,120t62,82.5t86.5,48T303,520q69,0 129.5-28t98-86.5T568,254q0-69-22.5-119T485,52T399.5,3.5T303-12Zm0,120q61,0 90,39.5T422,254q0,66-28.5,106T303,400q-58,0-89.5-40T182,254q0-67 31.5-106.5T303,108ZM250,571L129,741H283l70-170H250Z"/>
      <glyph unicode="&#xf3;" glyph-name="gid97" horiz-adv-x="604" d="M303-12q-69,0-130,28T74,103T36,254q0,70 23,120t62,82.5t86.5,48T303,520q69,0 129.5-28t98-86.5T568,254q0-69-22.5-119T485,52T399.5,3.5T303-12Zm0,120q61,0 90,39.5T422,254q0,66-28.5,106T303,400q-58,0-89.5-40T182,254q0-67 31.5-106.5T303,108Zm55,463H255l70,170H479L358,571Z"/>
      <glyph unicode="&#xf4;" glyph-name="gid98" horiz-adv-x="604" d="M303-12q-69,0-130,28T74,103T36,254q0,70 23,120t62,82.5t86.5,48T303,520q69,0 129.5-28t98-86.5T568,254q0-69-22.5-119T485,52T399.5,3.5T303-12Zm0,120q61,0 90,39.5T422,254q0,66-28.5,106T303,400q-58,0-89.5-40T182,254q0-67 31.5-106.5T303,108ZM132,571L254,741h97L474,571H353L269,702h69L252,571H132Z"/>
      <glyph unicode="&#xf5;" glyph-name="gid102" horiz-adv-x="604" d="M303-12q-69,0-130,28T74,103T36,254q0,70 23,120t62,82.5t86.5,48T303,520q69,0 129.5-28t98-86.5T568,254q0-69-22.5-119T485,52T399.5,3.5T303-12Zm0,120q61,0 90,39.5T422,254q0,66-28.5,106T303,400q-58,0-89.5-40T182,254q0-67 31.5-106.5T303,108ZM242,632q-22,0-30-16.5T204,571H105q0,76 29,117t93,41q34,0 58.5-13.5T329,688t34-14q18,0 28,12t10,40h99q0-71-28.5-114.5T378,568q-26,0-46,9.5T296,600t-29,22.5T242,632Z"/>
      <glyph unicode="&#xf6;" glyph-name="gid99" horiz-adv-x="604" d="M303-12q-69,0-130,28T74,103T36,254q0,70 23,120t62,82.5t86.5,48T303,520q69,0 129.5-28t98-86.5T568,254q0-69-22.5-119T485,52T399.5,3.5T303-12Zm0,120q61,0 90,39.5T422,254q0,66-28.5,106T303,400q-58,0-89.5-40T182,254q0-67 31.5-106.5T303,108ZM422,571q-34,0-59,25.5T338,656q0,35 25,60t59,25q36,0 60-25t24-60q0-34-24-59.5T422,571Zm-227,0q-34,0-59,25.5T111,656q0,35 25,60t59,25q36,0 60-25t24-60q0-34-24-59.5T195,571Z"/>
      <glyph unicode="&#xf7;" glyph-name="gid193" horiz-adv-x="624" d="M313,3q-36,0-61.5,25.5T226,90q0,35 25.5,60T313,175q35,0 60.5-25T399,90q0-36-25.5-61.5T313,3Zm0,411q-36,0-61.5,25.5T226,501q0,35 25.5,60T313,586q35,0 60.5-25T399,501q0-36-25.5-61.5T313,414ZM68,235V361H556V235H68Z"/>
      <glyph unicode="&#xf8;" glyph-name="gid101" horiz-adv-x="613" d="M25,13L508,556l79-61L102-51L25,13ZM309-12q-69,0-130,28T80,103T42,254q0,70 23,120t62,82.5t86.5,48T309,520q69,0 129.5-28t98-86.5T574,254q0-69-22.5-119T491,52T405.5,3.5T309-12Zm0,120q61,0 90,39.5T428,254q0,66-28.5,106T309,400q-58,0-89.5-40T188,254q0-67 31.5-106.5T309,108Z"/>
      <glyph unicode="&#xf9;" glyph-name="gid115" horiz-adv-x="616" d="M536,508V0H396V78q-8-18-22-34.5t-32.5-29T300.5-5T252-12q-67,0-109.5,26.5T80,87T60,193V508H200V212q0-55 21-83.5T285,100q42,0 66,20t34.5,57.5T396,269V508H536ZM239,571L118,741H272l70-170H239Z"/>
      <glyph unicode="&#xfa;" glyph-name="gid112" horiz-adv-x="616" d="M536,508V0H396V78q-8-18-22-34.5t-32.5-29T300.5-5T252-12q-67,0-109.5,26.5T80,87T60,193V508H200V212q0-55 21-83.5T285,100q42,0 66,20t34.5,57.5T396,269V508H536ZM347,571H244l70,170H468L347,571Z"/>
      <glyph unicode="&#xfb;" glyph-name="gid113" horiz-adv-x="616" d="M536,508V0H396V78q-8-18-22-34.5t-32.5-29T300.5-5T252-12q-67,0-109.5,26.5T80,87T60,193V508H200V212q0-55 21-83.5T285,100q42,0 66,20t34.5,57.5T396,269V508H536ZM121,571L243,741h97L463,571H342L258,702h69L241,571H121Z"/>
      <glyph unicode="&#xfc;" glyph-name="gid114" horiz-adv-x="616" d="M536,508V0H396V78q-8-18-22-34.5t-32.5-29T300.5-5T252-12q-67,0-109.5,26.5T80,87T60,193V508H200V212q0-55 21-83.5T285,100q42,0 66,20t34.5,57.5T396,269V508H536ZM411,571q-34,0-59,25.5T327,656q0,35 25,60t59,25q36,0 60-25t24-60q0-34-24-59.5T411,571Zm-227,0q-34,0-59,25.5T100,656q0,35 25,60t59,25q36,0 60-25t24-60q0-34-24-59.5T184,571Z"/>
      <glyph unicode="&#xfd;" glyph-name="gid120" horiz-adv-x="543" d="M132-230q-30,0-53,3.5T46-220l1,120q9-2 25.5-3T96-104q23,0 46,10t42,33.5T212,3L4,508H144L285,141L400,508H541L340-34q-26-71-57.5-114.5T214-211t-82-19ZM329,571H226l70,170H450L329,571Z"/>
      <glyph unicode="&#xfe;" glyph-name="gid105" horiz-adv-x="600" d="M193,83V-230H53L52,700H193V415q13,28 34,51.5T278,505t69,15q66,0 116.5-32t79-91.5T571,253q0-82-27.5-141.5T467,20T352-12q-41,0-72,12.5t-52.5,34T193,83ZM307,96q36,0 62.5,19t41,54.5T425,253q0,44-14.5,79.5t-41,56.5T307,410q-34,0-59.5-21t-40-56.5T193,253q0-47 14.5-82.5t40-54.5T307,96Z"/>
      <glyph unicode="&#xff;" glyph-name="gid121" horiz-adv-x="543" d="M132-230q-30,0-53,3.5T46-220l1,120q9-2 25.5-3T96-104q23,0 46,10t42,33.5T212,3L4,508H144L285,141L400,508H541L340-34q-26-71-57.5-114.5T214-211t-82-19ZM393,571q-34,0-59,25.5T309,656q0,35 25,60t59,25q36,0 60-25t24-60q0-34-24-59.5T393,571Zm-227,0q-34,0-59,25.5T82,656q0,35 25,60t59,25q36,0 60-25t24-60q0-34-24-59.5T166,571Z"/>
      <glyph unicode="&#x2013;" glyph-name="gid155" horiz-adv-x="582" d="M65,236V352H517V236H65Z"/>
      <glyph unicode="&#x2014;" glyph-name="gid156" horiz-adv-x="918" d="M65,236V352H853V236H65Z"/>
      <glyph unicode="&#x2018;" glyph-name="gid168" horiz-adv-x="264" d="M134,416q-32,0-52.5,15.5T52,470.5T43,518q0,30 9.5,64.5t29.5,66T135,700t79,20q1,0 0.5-10.5T214,688t0-11t-13.5-4.5t-31-15.5t-31-31.5T125,573q2,1 5.5,1t6.5,0q31,0 54-22.5T214,500q0-31-22.5-57.5T134,416Z"/>
      <glyph unicode="&#x2019;" glyph-name="gid169" horiz-adv-x="264" d="M50,417q0,0 0,11t0,21.5T50,460t13.5,4.5t31,15.5t31,31.5T139,564q-2-1-5.5-1t-6.5,0q-31,0-54,22.5T50,637q0,32 23,58t57,26q33,0 53-15.5t29-39t9-47.5q0-30-9.5-64.5t-29.5-66T129.5,437T50,417Z"/>
      <glyph unicode="&#x201a;" glyph-name="gid164" horiz-adv-x="271" d="M50-159q0,0 0,11t0,21.5T50-116t13.5,4.5T94.5-96t31,31.5T139-12q-2-1-5.5-1T127-13Q94-13 72,9.5T50,61q0,32 21.5,58T130,145q33,0 53-15.5t29-39T221,43q0-30-9.5-64.5T182-87.5T129.5-139T50-159Z"/>
      <glyph unicode="&#x201c;" glyph-name="gid166" horiz-adv-x="467" d="M221,721q1,0 0.5-10.5T221,689t0-11t-13.5-4.5t-31-15.5t-31-31.5T132,574q2,1 5.5,1t6.5,0q31,0 54-22.5T221,501q0-31-22.5-57.5T141,417q-32,0-52.5,15.5T59,471.5T50,519q0,30 9.5,64.5t29.5,66T142,701t79,20Zm203,0q1,0 0.5-10.5T424,689t0-11t-13.5-4.5t-31-15.5t-31-31.5T335,574q2,1 5.5,1t6.5,0q31,0 54-22.5T424,501q0-31-22.5-57.5T344,417q-32,0-52.5,15.5t-29.5,39T253,519q0,30 9.5,64.5t29.5,66T345,701t79,20Z"/>
      <glyph unicode="&#x201d;" glyph-name="gid167" horiz-adv-x="469" d="M248,417q0,0 0,11t0,21.5t0,10.5t13.5,4.5t31,15.5t31,31.5T337,564q-2-1-5.5-1t-6.5,0q-31,0-54,22.5T248,637q0,32 23,58t57,26q33,0 53-15.5t29-39t9-47.5q0-30-9.5-64.5t-29.5-66T327.5,437T248,417ZM45,417q0,0 0,11t0,21.5T45,460t13.5,4.5t31,15.5t31,31.5T134,564q-2-1-5.5-1t-6.5,0q-31,0-54,22.5T45,637q0,32 23,58t57,26q33,0 53-15.5t29-39t9-47.5q0-30-9.5-64.5t-29.5-66T124.5,437T45,417Z"/>
      <glyph unicode="&#x201e;" glyph-name="gid165" horiz-adv-x="479" d="M258-159q0,0 0,11t0,21.5t0,10.5t13.5,4.5t31,15.5t31,31.5T347-12q-2-1-5.5-1T335-13q-33,0-55,22.5T258,61q0,32 21.5,58T338,145q33,0 53-15.5t29-39T429,43q0-30-9.5-64.5T390-87.5T337.5-139T258-159ZM50-159q0,0 0,11t0,21.5T50-116t13.5,4.5T94.5-96t31,31.5T139-12q-2-1-5.5-1T127-13Q94-13 72,9.5T50,61q0,32 21.5,58T130,145q33,0 53-15.5t29-39T221,43q0-30-9.5-64.5T182-87.5T129.5-139T50-159Z"/>
      <glyph unicode="&#x2022;" glyph-name="gid147" horiz-adv-x="357" d="M179,197q-46,0-79,33T67,309t33,78t79,32t78.5-32T290,309q0-31-15-56.5T235,212t-56-15Z"/>
      <glyph unicode="&#x2039;" glyph-name="gid172" horiz-adv-x="421" d="M371,3L44,222V352L371,571V432L85,240v97L371,145V3Z"/>
      <glyph unicode="&#x203a;" glyph-name="gid173" horiz-adv-x="421" d="M44,3V145L330,337V240L44,432V571L371,352V222L44,3Z"/>
    </font>
</defs>
</svg>
